G04*
G04 #@! TF.GenerationSoftware,Altium Limited,Altium Designer,24.5.2 (23)*
G04*
G04 Layer_Color=8421504*
%FSLAX25Y25*%
%MOIN*%
G70*
G04*
G04 #@! TF.SameCoordinates,6FD9FAEC-A83E-4B3B-B3E8-2A74EE2DE8EE*
G04*
G04*
G04 #@! TF.FilePolarity,Positive*
G04*
G01*
G75*
G04:AMPARAMS|DCode=15|XSize=23.23mil|YSize=24.02mil|CornerRadius=1.74mil|HoleSize=0mil|Usage=FLASHONLY|Rotation=270.000|XOffset=0mil|YOffset=0mil|HoleType=Round|Shape=RoundedRectangle|*
%AMROUNDEDRECTD15*
21,1,0.02323,0.02053,0,0,270.0*
21,1,0.01974,0.02402,0,0,270.0*
1,1,0.00348,-0.01027,-0.00987*
1,1,0.00348,-0.01027,0.00987*
1,1,0.00348,0.01027,0.00987*
1,1,0.00348,0.01027,-0.00987*
%
%ADD15ROUNDEDRECTD15*%
%ADD16R,0.08465X0.03740*%
%ADD17R,0.08465X0.12795*%
%ADD18R,0.08100X0.08100*%
%ADD19R,0.03600X0.01000*%
%ADD20R,0.01000X0.03600*%
%ADD21R,0.04724X0.04724*%
%ADD22R,0.03150X0.01575*%
%ADD23R,0.01575X0.03150*%
%ADD24R,0.03150X0.03150*%
%ADD25R,0.06100X0.05100*%
%ADD26R,0.02756X0.03543*%
%ADD27R,0.02362X0.02126*%
%ADD28R,0.02126X0.02362*%
%ADD29R,0.03543X0.02756*%
%ADD30R,0.04800X0.02200*%
%ADD31R,0.04528X0.01073*%
%ADD32R,0.04528X0.02223*%
%ADD33R,0.02400X0.01600*%
%ADD34R,0.01600X0.02400*%
G04:AMPARAMS|DCode=35|XSize=25.2mil|YSize=28.35mil|CornerRadius=3.15mil|HoleSize=0mil|Usage=FLASHONLY|Rotation=270.000|XOffset=0mil|YOffset=0mil|HoleType=Round|Shape=RoundedRectangle|*
%AMROUNDEDRECTD35*
21,1,0.02520,0.02205,0,0,270.0*
21,1,0.01890,0.02835,0,0,270.0*
1,1,0.00630,-0.01102,-0.00945*
1,1,0.00630,-0.01102,0.00945*
1,1,0.00630,0.01102,0.00945*
1,1,0.00630,0.01102,-0.00945*
%
%ADD35ROUNDEDRECTD35*%
G04:AMPARAMS|DCode=36|XSize=25.2mil|YSize=28.35mil|CornerRadius=3.15mil|HoleSize=0mil|Usage=FLASHONLY|Rotation=180.000|XOffset=0mil|YOffset=0mil|HoleType=Round|Shape=RoundedRectangle|*
%AMROUNDEDRECTD36*
21,1,0.02520,0.02205,0,0,180.0*
21,1,0.01890,0.02835,0,0,180.0*
1,1,0.00630,-0.00945,0.01102*
1,1,0.00630,0.00945,0.01102*
1,1,0.00630,0.00945,-0.01102*
1,1,0.00630,-0.00945,-0.01102*
%
%ADD36ROUNDEDRECTD36*%
G36*
X243638Y54134D02*
Y58858D01*
X246000D01*
X248362Y56496D01*
Y54134D01*
X243638D01*
D02*
G37*
D15*
X182500Y79000D02*
D03*
Y82268D02*
D03*
Y23134D02*
D03*
Y19866D02*
D03*
D16*
X66583Y38055D02*
D03*
Y29000D02*
D03*
Y19945D02*
D03*
D17*
X89417Y29000D02*
D03*
D18*
X71000Y77000D02*
D03*
D19*
X78650Y80937D02*
D03*
Y78969D02*
D03*
Y77000D02*
D03*
Y75032D02*
D03*
Y73063D02*
D03*
X63350D02*
D03*
Y75032D02*
D03*
Y77000D02*
D03*
Y78969D02*
D03*
Y80937D02*
D03*
D20*
X74937Y69350D02*
D03*
X72969D02*
D03*
X71000D02*
D03*
X69032D02*
D03*
X67063D02*
D03*
Y84650D02*
D03*
X69032D02*
D03*
X71000D02*
D03*
X72969D02*
D03*
X74937D02*
D03*
D21*
X239504Y56496D02*
D03*
X233008D02*
D03*
Y50000D02*
D03*
Y43504D02*
D03*
X239504D02*
D03*
X246000D02*
D03*
Y50000D02*
D03*
X239504D02*
D03*
D22*
X267063Y73425D02*
D03*
Y70079D02*
D03*
Y66732D02*
D03*
Y63386D02*
D03*
Y60039D02*
D03*
Y56693D02*
D03*
Y53347D02*
D03*
Y50000D02*
D03*
Y46654D02*
D03*
Y43307D02*
D03*
Y39961D02*
D03*
Y36614D02*
D03*
Y33268D02*
D03*
Y29921D02*
D03*
Y26575D02*
D03*
X211945D02*
D03*
Y29921D02*
D03*
Y33268D02*
D03*
Y36614D02*
D03*
Y39961D02*
D03*
Y43307D02*
D03*
Y46654D02*
D03*
Y50000D02*
D03*
Y53347D02*
D03*
Y56693D02*
D03*
Y60039D02*
D03*
Y63386D02*
D03*
Y66732D02*
D03*
Y70079D02*
D03*
Y73425D02*
D03*
D23*
X262929Y22441D02*
D03*
X259583D02*
D03*
X256236D02*
D03*
X252890D02*
D03*
X249543D02*
D03*
X246197D02*
D03*
X242850D02*
D03*
X239504D02*
D03*
X236157D02*
D03*
X232811D02*
D03*
X229465D02*
D03*
X226118D02*
D03*
X222772D02*
D03*
X219425D02*
D03*
X216079D02*
D03*
Y77559D02*
D03*
X219425D02*
D03*
X222772D02*
D03*
X226118D02*
D03*
X229465D02*
D03*
X232811D02*
D03*
X236157D02*
D03*
X239504D02*
D03*
X242850D02*
D03*
X246197D02*
D03*
X249543D02*
D03*
X252890D02*
D03*
X256236D02*
D03*
X259583D02*
D03*
X262929D02*
D03*
D24*
X211945Y22441D02*
D03*
X267063D02*
D03*
X211945Y77559D02*
D03*
X267063D02*
D03*
D25*
X124350Y83858D02*
D03*
X155650D02*
D03*
X124350Y66142D02*
D03*
X155650D02*
D03*
X124350Y33858D02*
D03*
X155650D02*
D03*
X124350Y16142D02*
D03*
X155650D02*
D03*
D26*
X191500Y44100D02*
D03*
X196618D02*
D03*
X191482Y53000D02*
D03*
X196600D02*
D03*
X191500Y44100D02*
D03*
X186382D02*
D03*
X191482Y53000D02*
D03*
X186364D02*
D03*
X210841Y14500D02*
D03*
X215959D02*
D03*
X200441D02*
D03*
X205559D02*
D03*
X77436Y48600D02*
D03*
X72318D02*
D03*
X67200D02*
D03*
X72318D02*
D03*
X93559Y86500D02*
D03*
X88441D02*
D03*
D27*
X166500Y33099D02*
D03*
Y36501D02*
D03*
X103000Y68049D02*
D03*
Y71451D02*
D03*
Y83201D02*
D03*
Y79799D02*
D03*
X42500Y25799D02*
D03*
Y29201D02*
D03*
X41000Y17701D02*
D03*
Y14299D02*
D03*
X42000Y85098D02*
D03*
Y88500D02*
D03*
X182500Y70193D02*
D03*
Y66807D02*
D03*
Y30057D02*
D03*
Y33443D02*
D03*
D28*
X200451Y78500D02*
D03*
X197049D02*
D03*
X200451Y84500D02*
D03*
X197049D02*
D03*
X43201Y69300D02*
D03*
X39799D02*
D03*
X53701Y73800D02*
D03*
X50299D02*
D03*
X53701Y78800D02*
D03*
X50299D02*
D03*
X88799Y50000D02*
D03*
X92201D02*
D03*
Y57000D02*
D03*
X88799D02*
D03*
X88807Y62500D02*
D03*
X92193D02*
D03*
D29*
X58000Y60809D02*
D03*
Y55691D02*
D03*
D30*
X109480Y66690D02*
D03*
Y59210D02*
D03*
X117520Y62950D02*
D03*
X109480Y83190D02*
D03*
Y75710D02*
D03*
X117520Y79450D02*
D03*
D31*
X24764Y28898D02*
D03*
Y15118D02*
D03*
Y17087D02*
D03*
Y26929D02*
D03*
Y24961D02*
D03*
Y19055D02*
D03*
Y21024D02*
D03*
Y22992D02*
D03*
Y84882D02*
D03*
Y71102D02*
D03*
Y73071D02*
D03*
Y82913D02*
D03*
Y80945D02*
D03*
Y75039D02*
D03*
Y77008D02*
D03*
Y78976D02*
D03*
D32*
Y34606D02*
D03*
Y31457D02*
D03*
Y12559D02*
D03*
Y9409D02*
D03*
Y90591D02*
D03*
Y87441D02*
D03*
Y68543D02*
D03*
Y65394D02*
D03*
D33*
X34500Y19100D02*
D03*
Y16600D02*
D03*
Y24750D02*
D03*
Y27250D02*
D03*
Y75000D02*
D03*
Y72500D02*
D03*
X34000Y80750D02*
D03*
Y83250D02*
D03*
D34*
X36150Y37000D02*
D03*
X33650D02*
D03*
X35850Y62000D02*
D03*
X33350D02*
D03*
D35*
X164500Y76382D02*
D03*
Y72918D02*
D03*
X166500Y19418D02*
D03*
Y22882D02*
D03*
X56000Y34268D02*
D03*
Y37732D02*
D03*
X51500Y23882D02*
D03*
Y20418D02*
D03*
X58000Y23882D02*
D03*
Y20418D02*
D03*
X64000Y56618D02*
D03*
Y60082D02*
D03*
D36*
X257932Y85800D02*
D03*
X254468D02*
D03*
X265932D02*
D03*
X262468D02*
D03*
X46732Y37000D02*
D03*
X43268D02*
D03*
X51918Y86000D02*
D03*
X55382D02*
D03*
X91332Y79400D02*
D03*
X87868D02*
D03*
X57232Y67500D02*
D03*
X53768D02*
D03*
X75732Y54500D02*
D03*
X72268D02*
D03*
X76232Y60500D02*
D03*
X72768D02*
D03*
X259535Y14500D02*
D03*
X263000D02*
D03*
X244268Y85500D02*
D03*
X247732D02*
D03*
X47632Y61700D02*
D03*
X44168D02*
D03*
M02*
