G04*
G04 #@! TF.GenerationSoftware,Altium Limited,Altium Designer,24.5.2 (23)*
G04*
G04 Layer_Physical_Order=2*
G04 Layer_Color=36540*
%FSLAX25Y25*%
%MOIN*%
G70*
G04*
G04 #@! TF.SameCoordinates,6FD9FAEC-A83E-4B3B-B3E8-2A74EE2DE8EE*
G04*
G04*
G04 #@! TF.FilePolarity,Positive*
G04*
G01*
G75*
%ADD52C,0.04200*%
%ADD58C,0.01500*%
%ADD64O,0.08661X0.03937*%
%ADD65O,0.07087X0.03937*%
%ADD66C,0.02400*%
%ADD67C,0.04000*%
%ADD68C,0.03000*%
%ADD69C,0.06000*%
%ADD70R,0.06000X0.06000*%
%ADD71C,0.06000*%
G36*
X268000Y98000D02*
Y92049D01*
X262049D01*
Y98000D01*
X268000D01*
X268000Y98000D01*
D02*
G37*
G36*
X89746Y85050D02*
X89936Y84591D01*
X94609Y79918D01*
X92010Y77318D01*
X91593Y76775D01*
X91331Y76143D01*
X91242Y75464D01*
X91242Y75464D01*
Y61150D01*
X80646Y50554D01*
X80229Y50011D01*
X79967Y49379D01*
X79878Y48700D01*
X79967Y48021D01*
X80229Y47389D01*
X80646Y46846D01*
X81189Y46429D01*
X81821Y46167D01*
X82500Y46078D01*
X83179Y46167D01*
X83811Y46429D01*
X84354Y46846D01*
X95718Y58210D01*
X95718Y58210D01*
X96135Y58753D01*
X96397Y59385D01*
X96486Y60064D01*
X96486Y60064D01*
Y64484D01*
X96560Y64529D01*
X97086Y64668D01*
X97480Y64274D01*
X98142Y64000D01*
X98858D01*
X99520Y64274D01*
X100026Y64780D01*
X100300Y65442D01*
Y66158D01*
X100026Y66820D01*
X99520Y67326D01*
X98858Y67600D01*
X98142D01*
X97480Y67326D01*
X97086Y66932D01*
X96560Y67071D01*
X96486Y67116D01*
Y73173D01*
X97086Y73292D01*
X97174Y73080D01*
X97680Y72574D01*
X98342Y72300D01*
X99058D01*
X99720Y72574D01*
X100226Y73080D01*
X100500Y73742D01*
Y74458D01*
X100226Y75120D01*
X99720Y75626D01*
X99058Y75900D01*
X98857D01*
X98609Y76500D01*
X101033Y78924D01*
X115939Y78966D01*
X137846Y67708D01*
Y54305D01*
X138036Y53846D01*
X138646Y53236D01*
Y52435D01*
X138046Y52225D01*
X137542Y52516D01*
X136855Y52700D01*
X136144D01*
X135458Y52516D01*
X134842Y52161D01*
X134339Y51658D01*
X134264Y51526D01*
X132256Y49519D01*
X131406Y49407D01*
X130530Y49045D01*
X129778Y48467D01*
X126282Y44972D01*
X125705Y44220D01*
X125343Y43344D01*
X125219Y42404D01*
Y22354D01*
X121696Y18831D01*
X71049D01*
Y21700D01*
X70859Y22159D01*
X70400Y22349D01*
X51500D01*
X51041Y22159D01*
X50851Y21700D01*
X50850Y18417D01*
X50383Y17949D01*
X47200Y17949D01*
X46741Y17759D01*
X45441Y16459D01*
X45251Y16000D01*
Y13100D01*
X45441Y12641D01*
X46441Y11641D01*
X46900Y11451D01*
X70400D01*
X70686Y11569D01*
X123200D01*
X124140Y11693D01*
X125015Y12055D01*
X125768Y12632D01*
X131418Y18282D01*
X131418Y18282D01*
X131995Y19035D01*
X132357Y19910D01*
X132481Y20850D01*
X132481Y20850D01*
Y40900D01*
X134913Y43332D01*
X135491Y44085D01*
X135853Y44960D01*
X135965Y45811D01*
X137770Y47616D01*
X138046Y47775D01*
X138646Y47565D01*
Y46905D01*
X138836Y46446D01*
X139295Y46255D01*
X144595D01*
X145054Y46446D01*
X145154Y46546D01*
X145345Y47005D01*
Y68151D01*
X173431D01*
X180136Y61446D01*
X180595Y61255D01*
X191026D01*
X195136Y57146D01*
X195595Y56955D01*
X208095D01*
X208554Y57146D01*
X213854Y62446D01*
X214045Y62905D01*
Y72248D01*
X214210Y72338D01*
X214645Y72432D01*
X215059Y72017D01*
X215721Y71743D01*
X216437D01*
X217098Y72017D01*
X217605Y72524D01*
X217879Y73185D01*
Y73901D01*
X217605Y74563D01*
X217098Y75069D01*
X216913Y75146D01*
X216772Y75854D01*
X219474Y78555D01*
X251346D01*
Y75135D01*
X250746Y74887D01*
X250563Y75069D01*
X249901Y75343D01*
X249185D01*
X248524Y75069D01*
X248017Y74563D01*
X247743Y73901D01*
Y73185D01*
X248017Y72524D01*
X248524Y72017D01*
X249185Y71743D01*
X249901D01*
X250563Y72017D01*
X250746Y72200D01*
X251346Y71952D01*
Y67805D01*
X251536Y67346D01*
X254165Y64717D01*
X254047Y31127D01*
X254047Y31126D01*
X254047Y31125D01*
X254142Y30895D01*
X254235Y30667D01*
X254236Y30667D01*
X254237Y30665D01*
X257551Y27351D01*
X257551Y16579D01*
X251726Y10754D01*
X233095D01*
X232636Y10564D01*
X230336Y8264D01*
X230146Y7805D01*
Y2000D01*
X227940D01*
X227691Y2600D01*
X227881Y2789D01*
X228355Y3610D01*
X228600Y4526D01*
Y5474D01*
X228355Y6390D01*
X227881Y7210D01*
X227210Y7881D01*
X226390Y8355D01*
X225474Y8600D01*
X224526D01*
X223610Y8355D01*
X222790Y7881D01*
X222119Y7210D01*
X221645Y6390D01*
X221400Y5474D01*
Y4526D01*
X221645Y3610D01*
X222119Y2789D01*
X222309Y2600D01*
X222060Y2000D01*
X217940D01*
X217691Y2600D01*
X217881Y2789D01*
X218355Y3610D01*
X218600Y4526D01*
Y5474D01*
X218355Y6390D01*
X217881Y7210D01*
X217210Y7881D01*
X216390Y8355D01*
X215474Y8600D01*
X214526D01*
X213610Y8355D01*
X212790Y7881D01*
X212119Y7210D01*
X211645Y6390D01*
X211400Y5474D01*
Y4526D01*
X211645Y3610D01*
X212119Y2789D01*
X212309Y2600D01*
X212060Y2000D01*
X207940D01*
X207691Y2600D01*
X207881Y2789D01*
X208355Y3610D01*
X208600Y4526D01*
Y5474D01*
X208355Y6390D01*
X207881Y7210D01*
X207210Y7881D01*
X206390Y8355D01*
X205474Y8600D01*
X204526D01*
X203610Y8355D01*
X202790Y7881D01*
X202119Y7210D01*
X201645Y6390D01*
X201400Y5474D01*
Y4526D01*
X201645Y3610D01*
X202119Y2789D01*
X202309Y2600D01*
X202060Y2000D01*
X197940D01*
X197691Y2600D01*
X197881Y2789D01*
X198355Y3610D01*
X198600Y4526D01*
Y5474D01*
X198355Y6390D01*
X197881Y7210D01*
X197210Y7881D01*
X196390Y8355D01*
X195474Y8600D01*
X194526D01*
X193610Y8355D01*
X192790Y7881D01*
X192119Y7210D01*
X191645Y6390D01*
X191400Y5474D01*
Y4526D01*
X191645Y3610D01*
X192119Y2789D01*
X192309Y2600D01*
X192060Y2000D01*
X187940D01*
X187691Y2600D01*
X187881Y2789D01*
X188355Y3610D01*
X188600Y4526D01*
Y5474D01*
X188355Y6390D01*
X187881Y7210D01*
X187210Y7881D01*
X186390Y8355D01*
X185474Y8600D01*
X184526D01*
X183610Y8355D01*
X182790Y7881D01*
X182119Y7210D01*
X181645Y6390D01*
X181400Y5474D01*
Y4526D01*
X181645Y3610D01*
X182119Y2789D01*
X182309Y2600D01*
X182060Y2000D01*
X177940D01*
X177691Y2600D01*
X177881Y2789D01*
X178355Y3610D01*
X178600Y4526D01*
Y5474D01*
X178355Y6390D01*
X177881Y7210D01*
X177210Y7881D01*
X176390Y8355D01*
X175474Y8600D01*
X174526D01*
X173610Y8355D01*
X172790Y7881D01*
X172119Y7210D01*
X171645Y6390D01*
X171400Y5474D01*
Y4526D01*
X171645Y3610D01*
X172119Y2789D01*
X172309Y2600D01*
X172060Y2000D01*
X167940D01*
X167691Y2600D01*
X167881Y2789D01*
X168355Y3610D01*
X168600Y4526D01*
Y5474D01*
X168355Y6390D01*
X167881Y7210D01*
X167210Y7881D01*
X166390Y8355D01*
X165474Y8600D01*
X164526D01*
X163610Y8355D01*
X162790Y7881D01*
X162119Y7210D01*
X161645Y6390D01*
X161400Y5474D01*
Y4526D01*
X161645Y3610D01*
X162119Y2789D01*
X162309Y2600D01*
X162060Y2000D01*
X157940D01*
X157691Y2600D01*
X157881Y2789D01*
X158355Y3610D01*
X158600Y4526D01*
Y5474D01*
X158355Y6390D01*
X157881Y7210D01*
X157210Y7881D01*
X156390Y8355D01*
X155474Y8600D01*
X154526D01*
X153610Y8355D01*
X152790Y7881D01*
X152119Y7210D01*
X151645Y6390D01*
X151400Y5474D01*
Y4526D01*
X151645Y3610D01*
X152119Y2789D01*
X152309Y2600D01*
X152060Y2000D01*
X147940D01*
X147691Y2600D01*
X147881Y2789D01*
X148355Y3610D01*
X148600Y4526D01*
Y5474D01*
X148355Y6390D01*
X147881Y7210D01*
X147210Y7881D01*
X146390Y8355D01*
X145474Y8600D01*
X144526D01*
X143610Y8355D01*
X142790Y7881D01*
X142119Y7210D01*
X141645Y6390D01*
X141400Y5474D01*
Y4526D01*
X141645Y3610D01*
X142119Y2789D01*
X142309Y2600D01*
X142060Y2000D01*
X137940D01*
X137691Y2600D01*
X137881Y2789D01*
X138355Y3610D01*
X138600Y4526D01*
Y5474D01*
X138355Y6390D01*
X137881Y7210D01*
X137210Y7881D01*
X136390Y8355D01*
X135474Y8600D01*
X134526D01*
X133610Y8355D01*
X132790Y7881D01*
X132119Y7210D01*
X131645Y6390D01*
X131400Y5474D01*
Y4526D01*
X131645Y3610D01*
X132119Y2789D01*
X132309Y2600D01*
X132060Y2000D01*
X127940D01*
X127691Y2600D01*
X127881Y2789D01*
X128355Y3610D01*
X128600Y4526D01*
Y5474D01*
X128355Y6390D01*
X127881Y7210D01*
X127210Y7881D01*
X126390Y8355D01*
X125474Y8600D01*
X124526D01*
X123610Y8355D01*
X122790Y7881D01*
X122119Y7210D01*
X121645Y6390D01*
X121400Y5474D01*
Y4526D01*
X121645Y3610D01*
X122119Y2789D01*
X122309Y2600D01*
X122060Y2000D01*
X117940D01*
X117691Y2600D01*
X117881Y2789D01*
X118355Y3610D01*
X118600Y4526D01*
Y5474D01*
X118355Y6390D01*
X117881Y7210D01*
X117210Y7881D01*
X116390Y8355D01*
X115474Y8600D01*
X114526D01*
X113610Y8355D01*
X112790Y7881D01*
X112119Y7210D01*
X111645Y6390D01*
X111400Y5474D01*
Y4526D01*
X111645Y3610D01*
X112119Y2789D01*
X112309Y2600D01*
X112060Y2000D01*
X107940D01*
X107691Y2600D01*
X107881Y2789D01*
X108355Y3610D01*
X108600Y4526D01*
Y5474D01*
X108355Y6390D01*
X107881Y7210D01*
X107210Y7881D01*
X106390Y8355D01*
X105474Y8600D01*
X104526D01*
X103610Y8355D01*
X102790Y7881D01*
X102119Y7210D01*
X101645Y6390D01*
X101400Y5474D01*
Y4526D01*
X101645Y3610D01*
X102119Y2789D01*
X102309Y2600D01*
X102060Y2000D01*
X97940D01*
X97691Y2600D01*
X97881Y2789D01*
X98355Y3610D01*
X98600Y4526D01*
Y5474D01*
X98355Y6390D01*
X97881Y7210D01*
X97211Y7881D01*
X96390Y8355D01*
X95474Y8600D01*
X94526D01*
X93611Y8355D01*
X92790Y7881D01*
X92119Y7210D01*
X91645Y6390D01*
X91400Y5474D01*
Y4526D01*
X91645Y3610D01*
X92119Y2789D01*
X92309Y2600D01*
X92060Y2000D01*
X87940D01*
X87691Y2600D01*
X87881Y2789D01*
X88355Y3610D01*
X88600Y4526D01*
Y5474D01*
X88355Y6390D01*
X87881Y7210D01*
X87211Y7881D01*
X86389Y8355D01*
X85474Y8600D01*
X84526D01*
X83610Y8355D01*
X82789Y7881D01*
X82119Y7210D01*
X81645Y6390D01*
X81400Y5474D01*
Y4526D01*
X81645Y3610D01*
X82119Y2789D01*
X82309Y2600D01*
X82060Y2000D01*
X77940D01*
X77691Y2600D01*
X77881Y2789D01*
X78355Y3610D01*
X78600Y4526D01*
Y5474D01*
X78355Y6390D01*
X77881Y7210D01*
X77210Y7881D01*
X76389Y8355D01*
X75474Y8600D01*
X74526D01*
X73611Y8355D01*
X72790Y7881D01*
X72119Y7210D01*
X71645Y6390D01*
X71400Y5474D01*
Y4526D01*
X71645Y3610D01*
X72119Y2789D01*
X72309Y2600D01*
X72060Y2000D01*
X67940D01*
X67691Y2600D01*
X67881Y2789D01*
X68355Y3610D01*
X68600Y4526D01*
Y5474D01*
X68355Y6390D01*
X67881Y7210D01*
X67211Y7881D01*
X66390Y8355D01*
X65474Y8600D01*
X64526D01*
X63611Y8355D01*
X62789Y7881D01*
X62119Y7210D01*
X61645Y6390D01*
X61400Y5474D01*
Y4526D01*
X61645Y3610D01*
X62119Y2789D01*
X62309Y2600D01*
X62060Y2000D01*
X57940D01*
X57691Y2600D01*
X57881Y2789D01*
X58355Y3610D01*
X58600Y4526D01*
Y5474D01*
X58355Y6390D01*
X57881Y7210D01*
X57210Y7881D01*
X56389Y8355D01*
X55474Y8600D01*
X54526D01*
X53610Y8355D01*
X52789Y7881D01*
X52119Y7210D01*
X51645Y6390D01*
X51400Y5474D01*
Y4526D01*
X51645Y3610D01*
X52119Y2789D01*
X52309Y2600D01*
X52060Y2000D01*
X47940D01*
X47691Y2600D01*
X47881Y2789D01*
X48355Y3610D01*
X48600Y4526D01*
Y5474D01*
X48355Y6390D01*
X47881Y7210D01*
X47210Y7881D01*
X46390Y8355D01*
X45474Y8600D01*
X44526D01*
X43610Y8355D01*
X42790Y7881D01*
X42119Y7210D01*
X41645Y6390D01*
X41400Y5474D01*
Y4526D01*
X41645Y3610D01*
X42119Y2789D01*
X42309Y2600D01*
X42060Y2000D01*
X2000D01*
X2000Y2000D01*
Y98000D01*
X32060D01*
X32309Y97400D01*
X32119Y97211D01*
X31645Y96390D01*
X31400Y95474D01*
Y94526D01*
X31645Y93611D01*
X32119Y92790D01*
X32790Y92119D01*
X33610Y91645D01*
X34526Y91400D01*
X35474D01*
X36390Y91645D01*
X37210Y92119D01*
X37881Y92790D01*
X38355Y93611D01*
X38600Y94526D01*
Y95474D01*
X38355Y96390D01*
X37881Y97211D01*
X37691Y97400D01*
X37940Y98000D01*
X52060D01*
X52309Y97400D01*
X52119Y97211D01*
X51645Y96390D01*
X51400Y95474D01*
Y94526D01*
X51645Y93611D01*
X52119Y92790D01*
X52789Y92119D01*
X53610Y91645D01*
X54526Y91400D01*
X55474D01*
X56389Y91645D01*
X57210Y92119D01*
X57881Y92790D01*
X58355Y93611D01*
X58600Y94526D01*
Y95474D01*
X58355Y96390D01*
X57881Y97211D01*
X57691Y97400D01*
X57940Y98000D01*
X62060D01*
X62309Y97400D01*
X62119Y97211D01*
X61645Y96390D01*
X61400Y95474D01*
Y94526D01*
X61645Y93611D01*
X62119Y92790D01*
X62789Y92119D01*
X63611Y91645D01*
X64526Y91400D01*
X65474D01*
X66390Y91645D01*
X67211Y92119D01*
X67881Y92790D01*
X68355Y93611D01*
X68600Y94526D01*
Y95474D01*
X68355Y96390D01*
X67881Y97211D01*
X67691Y97400D01*
X67940Y98000D01*
X72060D01*
X72309Y97400D01*
X72119Y97211D01*
X71645Y96390D01*
X71400Y95474D01*
Y94526D01*
X71645Y93611D01*
X72119Y92790D01*
X72790Y92119D01*
X73611Y91645D01*
X74526Y91400D01*
X75474D01*
X76389Y91645D01*
X77210Y92119D01*
X77881Y92790D01*
X78355Y93611D01*
X78600Y94526D01*
Y95474D01*
X78355Y96390D01*
X77881Y97211D01*
X77691Y97400D01*
X77940Y98000D01*
X82060D01*
X82309Y97400D01*
X82119Y97211D01*
X81645Y96390D01*
X81400Y95474D01*
Y94526D01*
X81645Y93611D01*
X82119Y92790D01*
X82789Y92119D01*
X83610Y91645D01*
X84526Y91400D01*
X85474D01*
X86389Y91645D01*
X87211Y92119D01*
X87881Y92790D01*
X88355Y93611D01*
X88600Y94526D01*
Y95474D01*
X88355Y96390D01*
X87881Y97211D01*
X87691Y97400D01*
X87940Y98000D01*
X89746D01*
Y85050D01*
D02*
G37*
G36*
X261400Y91400D02*
X268000D01*
Y19574D01*
X267501Y19241D01*
X267358Y19300D01*
X266642D01*
X265980Y19026D01*
X265474Y18520D01*
X265200Y17858D01*
Y17142D01*
X265474Y16480D01*
X265980Y15974D01*
X266642Y15700D01*
X267358D01*
X267501Y15759D01*
X268000Y15426D01*
Y2000D01*
X257940D01*
X257691Y2600D01*
X257881Y2789D01*
X258355Y3610D01*
X258600Y4526D01*
Y5474D01*
X258355Y6390D01*
X257881Y7210D01*
X257210Y7881D01*
X256390Y8355D01*
X255474Y8600D01*
X254526D01*
X253610Y8355D01*
X252790Y7881D01*
X252119Y7210D01*
X251645Y6390D01*
X251400Y5474D01*
Y4526D01*
X251645Y3610D01*
X252119Y2789D01*
X252309Y2600D01*
X252060Y2000D01*
X247940D01*
X247691Y2600D01*
X247881Y2789D01*
X248355Y3610D01*
X248600Y4526D01*
Y5474D01*
X248355Y6390D01*
X247881Y7210D01*
X247210Y7881D01*
X246390Y8355D01*
X245474Y8600D01*
X244526D01*
X243610Y8355D01*
X242790Y7881D01*
X242119Y7210D01*
X241645Y6390D01*
X241400Y5474D01*
Y4526D01*
X241645Y3610D01*
X242119Y2789D01*
X242309Y2600D01*
X242060Y2000D01*
X237940D01*
X237691Y2600D01*
X237881Y2789D01*
X238355Y3610D01*
X238600Y4526D01*
Y5474D01*
X238355Y6390D01*
X237881Y7210D01*
X237210Y7881D01*
X236390Y8355D01*
X235474Y8600D01*
X234526D01*
X233610Y8355D01*
X232790Y7881D01*
X232119Y7210D01*
X231645Y6390D01*
X231400Y5474D01*
Y4526D01*
X231645Y3610D01*
X232119Y2789D01*
X232309Y2600D01*
X232060Y2000D01*
X230795D01*
Y7805D01*
X233095Y10105D01*
X251995D01*
X258200Y16310D01*
X258200Y27620D01*
X254696Y31124D01*
X254815Y64985D01*
X251995Y67805D01*
Y79205D01*
X219205D01*
X215076Y75076D01*
X215059Y75069D01*
X214553Y74563D01*
X214546Y74546D01*
X213395Y73395D01*
Y62905D01*
X208095Y57605D01*
X195595D01*
X191295Y61905D01*
X180595D01*
X173700Y68800D01*
X144695D01*
Y47005D01*
X144595Y46905D01*
X139295D01*
Y53505D01*
X138495Y54305D01*
Y68105D01*
X116095Y79616D01*
X95886Y79559D01*
X90395Y85050D01*
Y98000D01*
X92060D01*
X92309Y97400D01*
X92119Y97211D01*
X91645Y96390D01*
X91400Y95474D01*
Y94526D01*
X91645Y93611D01*
X92119Y92790D01*
X92790Y92119D01*
X93611Y91645D01*
X94526Y91400D01*
X95474D01*
X96390Y91645D01*
X97211Y92119D01*
X97881Y92790D01*
X98355Y93611D01*
X98600Y94526D01*
Y95474D01*
X98355Y96390D01*
X97881Y97211D01*
X97691Y97400D01*
X97940Y98000D01*
X102060D01*
X102309Y97400D01*
X102119Y97211D01*
X101645Y96390D01*
X101400Y95474D01*
Y94526D01*
X101645Y93611D01*
X102119Y92790D01*
X102790Y92119D01*
X103610Y91645D01*
X104526Y91400D01*
X105474D01*
X106390Y91645D01*
X107210Y92119D01*
X107881Y92790D01*
X108355Y93611D01*
X108600Y94526D01*
Y95474D01*
X108355Y96390D01*
X107881Y97211D01*
X107691Y97400D01*
X107940Y98000D01*
X112060D01*
X112309Y97400D01*
X112119Y97211D01*
X111645Y96390D01*
X111400Y95474D01*
Y94526D01*
X111645Y93611D01*
X112119Y92790D01*
X112790Y92119D01*
X113610Y91645D01*
X114526Y91400D01*
X115474D01*
X116390Y91645D01*
X117210Y92119D01*
X117881Y92790D01*
X118355Y93611D01*
X118600Y94526D01*
Y95474D01*
X118355Y96390D01*
X117881Y97211D01*
X117691Y97400D01*
X117940Y98000D01*
X122060D01*
X122309Y97400D01*
X122119Y97211D01*
X121645Y96390D01*
X121400Y95474D01*
Y94526D01*
X121645Y93611D01*
X122119Y92790D01*
X122790Y92119D01*
X123610Y91645D01*
X124526Y91400D01*
X125474D01*
X126390Y91645D01*
X127210Y92119D01*
X127881Y92790D01*
X128355Y93611D01*
X128600Y94526D01*
Y95474D01*
X128355Y96390D01*
X127881Y97211D01*
X127691Y97400D01*
X127940Y98000D01*
X132060D01*
X132309Y97400D01*
X132119Y97211D01*
X131645Y96390D01*
X131400Y95474D01*
Y94526D01*
X131645Y93611D01*
X132119Y92790D01*
X132790Y92119D01*
X133610Y91645D01*
X134526Y91400D01*
X135474D01*
X136390Y91645D01*
X137210Y92119D01*
X137881Y92790D01*
X138355Y93611D01*
X138600Y94526D01*
Y95474D01*
X138355Y96390D01*
X137881Y97211D01*
X137691Y97400D01*
X137940Y98000D01*
X142060D01*
X142309Y97400D01*
X142119Y97211D01*
X141645Y96390D01*
X141400Y95474D01*
Y94526D01*
X141645Y93611D01*
X142119Y92790D01*
X142790Y92119D01*
X143610Y91645D01*
X144526Y91400D01*
X145474D01*
X146390Y91645D01*
X147210Y92119D01*
X147881Y92790D01*
X148355Y93611D01*
X148600Y94526D01*
Y95474D01*
X148355Y96390D01*
X147881Y97211D01*
X147691Y97400D01*
X147940Y98000D01*
X152060D01*
X152309Y97400D01*
X152119Y97211D01*
X151645Y96390D01*
X151400Y95474D01*
Y94526D01*
X151645Y93611D01*
X152119Y92790D01*
X152790Y92119D01*
X153610Y91645D01*
X154526Y91400D01*
X155474D01*
X156390Y91645D01*
X157210Y92119D01*
X157881Y92790D01*
X158355Y93611D01*
X158600Y94526D01*
Y95474D01*
X158355Y96390D01*
X157881Y97211D01*
X157691Y97400D01*
X157940Y98000D01*
X162060D01*
X162309Y97400D01*
X162119Y97211D01*
X161645Y96390D01*
X161400Y95474D01*
Y94526D01*
X161645Y93611D01*
X162119Y92790D01*
X162790Y92119D01*
X163610Y91645D01*
X164526Y91400D01*
X165474D01*
X166390Y91645D01*
X167210Y92119D01*
X167881Y92790D01*
X168355Y93611D01*
X168600Y94526D01*
Y95474D01*
X168355Y96390D01*
X167881Y97211D01*
X167691Y97400D01*
X167940Y98000D01*
X172060D01*
X172309Y97400D01*
X172119Y97211D01*
X171645Y96390D01*
X171400Y95474D01*
Y94526D01*
X171645Y93611D01*
X172119Y92790D01*
X172790Y92119D01*
X173610Y91645D01*
X174526Y91400D01*
X175474D01*
X176390Y91645D01*
X177210Y92119D01*
X177881Y92790D01*
X178355Y93611D01*
X178600Y94526D01*
Y95474D01*
X178355Y96390D01*
X177881Y97211D01*
X177691Y97400D01*
X177940Y98000D01*
X182060D01*
X182309Y97400D01*
X182119Y97211D01*
X181645Y96390D01*
X181400Y95474D01*
Y94526D01*
X181645Y93611D01*
X182119Y92790D01*
X182790Y92119D01*
X183610Y91645D01*
X184526Y91400D01*
X185474D01*
X186390Y91645D01*
X187210Y92119D01*
X187881Y92790D01*
X188355Y93611D01*
X188600Y94526D01*
Y95474D01*
X188355Y96390D01*
X187881Y97211D01*
X187691Y97400D01*
X187940Y98000D01*
X192060D01*
X192309Y97400D01*
X192119Y97211D01*
X191645Y96390D01*
X191400Y95474D01*
Y94526D01*
X191645Y93611D01*
X192119Y92790D01*
X192790Y92119D01*
X193610Y91645D01*
X194526Y91400D01*
X195474D01*
X196390Y91645D01*
X197210Y92119D01*
X197881Y92790D01*
X198355Y93611D01*
X198600Y94526D01*
Y95474D01*
X198355Y96390D01*
X197881Y97211D01*
X197691Y97400D01*
X197940Y98000D01*
X202060D01*
X202309Y97400D01*
X202119Y97211D01*
X201645Y96390D01*
X201400Y95474D01*
Y94526D01*
X201645Y93611D01*
X202119Y92790D01*
X202790Y92119D01*
X203610Y91645D01*
X204526Y91400D01*
X205474D01*
X206390Y91645D01*
X207210Y92119D01*
X207881Y92790D01*
X208355Y93611D01*
X208600Y94526D01*
Y95474D01*
X208355Y96390D01*
X207881Y97211D01*
X207691Y97400D01*
X207940Y98000D01*
X212060D01*
X212309Y97400D01*
X212119Y97211D01*
X211645Y96390D01*
X211400Y95474D01*
Y94526D01*
X211645Y93611D01*
X212119Y92790D01*
X212790Y92119D01*
X213610Y91645D01*
X214526Y91400D01*
X215474D01*
X216390Y91645D01*
X217210Y92119D01*
X217881Y92790D01*
X218355Y93611D01*
X218600Y94526D01*
Y95474D01*
X218355Y96390D01*
X217881Y97211D01*
X217691Y97400D01*
X217940Y98000D01*
X222060D01*
X222309Y97400D01*
X222119Y97211D01*
X221645Y96390D01*
X221400Y95474D01*
Y94526D01*
X221645Y93611D01*
X222119Y92790D01*
X222790Y92119D01*
X223610Y91645D01*
X224526Y91400D01*
X225474D01*
X226390Y91645D01*
X227210Y92119D01*
X227881Y92790D01*
X228355Y93611D01*
X228600Y94526D01*
Y95474D01*
X228355Y96390D01*
X227881Y97211D01*
X227691Y97400D01*
X227940Y98000D01*
X232060D01*
X232309Y97400D01*
X232119Y97211D01*
X231645Y96390D01*
X231400Y95474D01*
Y94526D01*
X231645Y93611D01*
X232119Y92790D01*
X232790Y92119D01*
X233610Y91645D01*
X234526Y91400D01*
X235474D01*
X236390Y91645D01*
X237210Y92119D01*
X237881Y92790D01*
X238355Y93611D01*
X238600Y94526D01*
Y95474D01*
X238355Y96390D01*
X237881Y97211D01*
X237691Y97400D01*
X237940Y98000D01*
X242060D01*
X242309Y97400D01*
X242119Y97211D01*
X241645Y96390D01*
X241400Y95474D01*
Y94526D01*
X241645Y93611D01*
X242119Y92790D01*
X242790Y92119D01*
X243573Y91667D01*
X243670Y91571D01*
X243788Y91130D01*
X243759Y90984D01*
X243500Y90358D01*
Y89642D01*
X243774Y88980D01*
X244280Y88474D01*
X244942Y88200D01*
X245658D01*
X246320Y88474D01*
X246826Y88980D01*
X247100Y89642D01*
Y90358D01*
X246826Y91020D01*
X246709Y91137D01*
X246808Y91887D01*
X247210Y92119D01*
X247881Y92790D01*
X248355Y93611D01*
X248600Y94526D01*
Y95474D01*
X248355Y96390D01*
X247881Y97211D01*
X247691Y97400D01*
X247940Y98000D01*
X261400D01*
Y91400D01*
D02*
G37*
G36*
X70400Y12100D02*
X46900D01*
X45900Y13100D01*
Y16000D01*
X47200Y17300D01*
X50800Y17300D01*
X51500Y18000D01*
X51500Y21700D01*
X70400D01*
Y12100D01*
D02*
G37*
G36*
X256139Y7750D02*
X256812Y7361D01*
X257361Y6812D01*
X257750Y6139D01*
X257951Y5389D01*
Y4611D01*
X257750Y3861D01*
X257361Y3188D01*
X257232Y3059D01*
X257183Y2940D01*
X257091Y2849D01*
Y2719D01*
X257042Y2600D01*
X256788Y2000D01*
X253212D01*
X252958Y2600D01*
X252909Y2719D01*
Y2849D01*
X252818Y2940D01*
X252768Y3059D01*
X252639Y3188D01*
X252251Y3861D01*
X252049Y4611D01*
Y5389D01*
X252251Y6139D01*
X252639Y6812D01*
X253188Y7361D01*
X253861Y7750D01*
X254611Y7951D01*
X255388D01*
X256139Y7750D01*
D02*
G37*
%LPC*%
G36*
X79358Y90400D02*
X78642D01*
X77980Y90126D01*
X77474Y89620D01*
X77200Y88958D01*
Y88242D01*
X77474Y87580D01*
X77980Y87074D01*
X78642Y86800D01*
X79358D01*
X80020Y87074D01*
X80526Y87580D01*
X80800Y88242D01*
Y88958D01*
X80526Y89620D01*
X80020Y90126D01*
X79358Y90400D01*
D02*
G37*
G36*
X83358Y87300D02*
X82642D01*
X81980Y87026D01*
X81474Y86520D01*
X81200Y85858D01*
Y85142D01*
X81474Y84480D01*
X81980Y83974D01*
X82642Y83700D01*
X83358D01*
X84020Y83974D01*
X84526Y84480D01*
X84800Y85142D01*
Y85858D01*
X84526Y86520D01*
X84020Y87026D01*
X83358Y87300D01*
D02*
G37*
G36*
X46658Y80800D02*
X45942D01*
X45280Y80526D01*
X44774Y80020D01*
X44500Y79358D01*
Y78642D01*
X44774Y77980D01*
X45280Y77474D01*
X45942Y77200D01*
X46658D01*
X47320Y77474D01*
X47826Y77980D01*
X48100Y78642D01*
Y79358D01*
X47826Y80020D01*
X47320Y80526D01*
X46658Y80800D01*
D02*
G37*
G36*
X32284Y79749D02*
X31568D01*
X30907Y79475D01*
X30400Y78968D01*
X30126Y78307D01*
Y77591D01*
X30400Y76929D01*
X30907Y76423D01*
X31568Y76149D01*
X32284D01*
X32946Y76423D01*
X33452Y76929D01*
X33558Y77184D01*
X34207D01*
X34374Y76780D01*
X34880Y76274D01*
X35542Y76000D01*
X36258D01*
X36920Y76274D01*
X37426Y76780D01*
X37700Y77442D01*
Y78158D01*
X37426Y78820D01*
X36920Y79326D01*
X36258Y79600D01*
X35542D01*
X34880Y79326D01*
X34374Y78820D01*
X34269Y78565D01*
X33619D01*
X33452Y78968D01*
X32946Y79475D01*
X32284Y79749D01*
D02*
G37*
G36*
X46658Y75600D02*
X45942D01*
X45280Y75326D01*
X44774Y74820D01*
X44500Y74158D01*
Y73442D01*
X44774Y72780D01*
X45280Y72274D01*
X45942Y72000D01*
X46658D01*
X47320Y72274D01*
X47826Y72780D01*
X48100Y73442D01*
Y74158D01*
X47826Y74820D01*
X47320Y75326D01*
X46658Y75600D01*
D02*
G37*
G36*
X243208Y75343D02*
X242492D01*
X241831Y75069D01*
X241324Y74563D01*
X241050Y73901D01*
Y73185D01*
X241324Y72524D01*
X241831Y72017D01*
X242492Y71743D01*
X243208D01*
X243870Y72017D01*
X244376Y72524D01*
X244650Y73185D01*
Y73901D01*
X244376Y74563D01*
X243870Y75069D01*
X243208Y75343D01*
D02*
G37*
G36*
X236515D02*
X235799D01*
X235138Y75069D01*
X234631Y74563D01*
X234358Y73901D01*
Y73185D01*
X234631Y72524D01*
X235138Y72017D01*
X235799Y71743D01*
X236515D01*
X237177Y72017D01*
X237683Y72524D01*
X237958Y73185D01*
Y73901D01*
X237683Y74563D01*
X237177Y75069D01*
X236515Y75343D01*
D02*
G37*
G36*
X229823D02*
X229106D01*
X228445Y75069D01*
X227939Y74563D01*
X227665Y73901D01*
Y73185D01*
X227939Y72524D01*
X228445Y72017D01*
X229106Y71743D01*
X229823D01*
X230484Y72017D01*
X230991Y72524D01*
X231265Y73185D01*
Y73901D01*
X230991Y74563D01*
X230484Y75069D01*
X229823Y75343D01*
D02*
G37*
G36*
X223130D02*
X222414D01*
X221752Y75069D01*
X221246Y74563D01*
X220972Y73901D01*
Y73185D01*
X221246Y72524D01*
X221752Y72017D01*
X222414Y71743D01*
X223130D01*
X223791Y72017D01*
X224298Y72524D01*
X224572Y73185D01*
Y73901D01*
X224298Y74563D01*
X223791Y75069D01*
X223130Y75343D01*
D02*
G37*
G36*
X246551Y69300D02*
X245835D01*
X245173Y69026D01*
X244667Y68520D01*
X244393Y67858D01*
Y67142D01*
X244667Y66480D01*
X245173Y65974D01*
X245835Y65700D01*
X246551D01*
X247213Y65974D01*
X247719Y66480D01*
X247993Y67142D01*
Y67858D01*
X247719Y68520D01*
X247213Y69026D01*
X246551Y69300D01*
D02*
G37*
G36*
X239858D02*
X239142D01*
X238480Y69026D01*
X237974Y68520D01*
X237700Y67858D01*
Y67142D01*
X237974Y66480D01*
X238480Y65974D01*
X239142Y65700D01*
X239858D01*
X240520Y65974D01*
X241026Y66480D01*
X241300Y67142D01*
Y67858D01*
X241026Y68520D01*
X240520Y69026D01*
X239858Y69300D01*
D02*
G37*
G36*
X233165D02*
X232449D01*
X231787Y69026D01*
X231281Y68520D01*
X231007Y67858D01*
Y67142D01*
X231281Y66480D01*
X231787Y65974D01*
X232449Y65700D01*
X233165D01*
X233827Y65974D01*
X234333Y66480D01*
X234607Y67142D01*
Y67858D01*
X234333Y68520D01*
X233827Y69026D01*
X233165Y69300D01*
D02*
G37*
G36*
X226472D02*
X225756D01*
X225095Y69026D01*
X224588Y68520D01*
X224314Y67858D01*
Y67142D01*
X224588Y66480D01*
X225095Y65974D01*
X225756Y65700D01*
X226472D01*
X227134Y65974D01*
X227640Y66480D01*
X227914Y67142D01*
Y67858D01*
X227640Y68520D01*
X227134Y69026D01*
X226472Y69300D01*
D02*
G37*
G36*
X219779D02*
X219063D01*
X218402Y69026D01*
X217895Y68520D01*
X217621Y67858D01*
Y67142D01*
X217895Y66480D01*
X218402Y65974D01*
X219063Y65700D01*
X219779D01*
X220441Y65974D01*
X220947Y66480D01*
X221221Y67142D01*
Y67858D01*
X220947Y68520D01*
X220441Y69026D01*
X219779Y69300D01*
D02*
G37*
G36*
X87558Y69100D02*
X86842D01*
X86180Y68826D01*
X85674Y68320D01*
X85400Y67658D01*
Y66942D01*
X85674Y66280D01*
X86180Y65774D01*
X86842Y65500D01*
X87558D01*
X88220Y65774D01*
X88726Y66280D01*
X89000Y66942D01*
Y67658D01*
X88726Y68320D01*
X88220Y68826D01*
X87558Y69100D01*
D02*
G37*
G36*
X173658Y64600D02*
X172942D01*
X172280Y64326D01*
X171774Y63820D01*
X171500Y63158D01*
Y62442D01*
X171774Y61780D01*
X172280Y61274D01*
X172942Y61000D01*
X173658D01*
X174320Y61274D01*
X174826Y61780D01*
X175100Y62442D01*
Y63158D01*
X174826Y63820D01*
X174320Y64326D01*
X173658Y64600D01*
D02*
G37*
G36*
X167958Y64300D02*
X167242D01*
X166580Y64026D01*
X166074Y63520D01*
X165800Y62858D01*
Y62142D01*
X166074Y61480D01*
X166580Y60974D01*
X167242Y60700D01*
X167958D01*
X168620Y60974D01*
X169126Y61480D01*
X169400Y62142D01*
Y62858D01*
X169126Y63520D01*
X168620Y64026D01*
X167958Y64300D01*
D02*
G37*
G36*
X217338Y61820D02*
X216622D01*
X215961Y61546D01*
X215454Y61039D01*
X215180Y60378D01*
Y59662D01*
X215454Y59000D01*
X215961Y58494D01*
X216622Y58220D01*
X217338D01*
X218000Y58494D01*
X218506Y59000D01*
X218780Y59662D01*
Y60378D01*
X218506Y61039D01*
X218000Y61546D01*
X217338Y61820D01*
D02*
G37*
G36*
X54358Y60900D02*
X53642D01*
X52980Y60626D01*
X52474Y60120D01*
X52200Y59458D01*
Y58742D01*
X52474Y58080D01*
X52980Y57574D01*
X53642Y57300D01*
X54358D01*
X55020Y57574D01*
X55526Y58080D01*
X55800Y58742D01*
Y59458D01*
X55526Y60120D01*
X55020Y60626D01*
X54358Y60900D01*
D02*
G37*
G36*
X221858Y58800D02*
X221142D01*
X220480Y58526D01*
X219974Y58020D01*
X219700Y57358D01*
Y56642D01*
X219974Y55980D01*
X220480Y55474D01*
X221142Y55200D01*
X221858D01*
X222520Y55474D01*
X223026Y55980D01*
X223300Y56642D01*
Y57358D01*
X223026Y58020D01*
X222520Y58526D01*
X221858Y58800D01*
D02*
G37*
G36*
X217358Y56300D02*
X216642D01*
X215980Y56026D01*
X215474Y55520D01*
X215200Y54858D01*
Y54142D01*
X215474Y53480D01*
X215980Y52974D01*
X216642Y52700D01*
X217358D01*
X218020Y52974D01*
X218526Y53480D01*
X218800Y54142D01*
Y54858D01*
X218526Y55520D01*
X218020Y56026D01*
X217358Y56300D01*
D02*
G37*
G36*
X201358Y54800D02*
X200642D01*
X199980Y54526D01*
X199474Y54020D01*
X199200Y53358D01*
Y52642D01*
X199474Y51980D01*
X199980Y51474D01*
X200642Y51200D01*
X201358D01*
X202020Y51474D01*
X202526Y51980D01*
X202800Y52642D01*
Y53358D01*
X202526Y54020D01*
X202020Y54526D01*
X201358Y54800D01*
D02*
G37*
G36*
X181558Y53600D02*
X180842D01*
X180180Y53326D01*
X179674Y52820D01*
X179400Y52158D01*
Y51442D01*
X179674Y50780D01*
X180180Y50274D01*
X180842Y50000D01*
X181558D01*
X182220Y50274D01*
X182726Y50780D01*
X183000Y51442D01*
Y52158D01*
X182726Y52820D01*
X182220Y53326D01*
X181558Y53600D01*
D02*
G37*
G36*
X60258Y51800D02*
X59542D01*
X58880Y51526D01*
X58374Y51020D01*
X58100Y50358D01*
Y49642D01*
X58374Y48980D01*
X58880Y48474D01*
X59542Y48200D01*
X60258D01*
X60920Y48474D01*
X61426Y48980D01*
X61700Y49642D01*
Y50358D01*
X61426Y51020D01*
X60920Y51526D01*
X60258Y51800D01*
D02*
G37*
G36*
X181576Y47100D02*
X180860D01*
X180199Y46826D01*
X179692Y46320D01*
X179418Y45658D01*
Y44942D01*
X179692Y44280D01*
X180199Y43774D01*
X180860Y43500D01*
X181576D01*
X182238Y43774D01*
X182744Y44280D01*
X183018Y44942D01*
Y45658D01*
X182744Y46320D01*
X182238Y46826D01*
X181576Y47100D01*
D02*
G37*
G36*
X37855Y57700D02*
X37145D01*
X36458Y57516D01*
X35842Y57161D01*
X35339Y56658D01*
X34984Y56042D01*
X34800Y55356D01*
Y54645D01*
X34984Y53958D01*
X35339Y53342D01*
X35842Y52839D01*
X35910Y52800D01*
Y52200D01*
X35842Y52161D01*
X35339Y51658D01*
X34984Y51042D01*
X34800Y50355D01*
Y49645D01*
X34984Y48958D01*
X35339Y48342D01*
X35842Y47839D01*
X35910Y47800D01*
Y47200D01*
X35842Y47161D01*
X35339Y46658D01*
X34984Y46042D01*
X34800Y45355D01*
Y44644D01*
X34984Y43958D01*
X35339Y43342D01*
X35842Y42840D01*
X36458Y42484D01*
X37145Y42300D01*
X37855D01*
X38542Y42484D01*
X39158Y42840D01*
X39661Y43342D01*
X40016Y43958D01*
X40200Y44644D01*
Y45355D01*
X40016Y46042D01*
X39661Y46658D01*
X39158Y47161D01*
X39090Y47200D01*
Y47800D01*
X39158Y47839D01*
X39661Y48342D01*
X40016Y48958D01*
X40200Y49645D01*
Y50355D01*
X40016Y51042D01*
X39661Y51658D01*
X39158Y52161D01*
X39090Y52200D01*
Y52800D01*
X39158Y52839D01*
X39661Y53342D01*
X40016Y53958D01*
X40200Y54645D01*
Y55356D01*
X40016Y56042D01*
X39661Y56658D01*
X39158Y57161D01*
X38542Y57516D01*
X37855Y57700D01*
D02*
G37*
G36*
X201476Y45800D02*
X200760D01*
X200098Y45526D01*
X199592Y45020D01*
X199318Y44358D01*
Y43642D01*
X199592Y42980D01*
X200098Y42474D01*
X200760Y42200D01*
X201476D01*
X202138Y42474D01*
X202644Y42980D01*
X202918Y43642D01*
Y44358D01*
X202644Y45020D01*
X202138Y45526D01*
X201476Y45800D01*
D02*
G37*
G36*
X217204Y44954D02*
X216488D01*
X215827Y44679D01*
X215320Y44173D01*
X215047Y43512D01*
Y42796D01*
X215320Y42134D01*
X215827Y41628D01*
X216488Y41354D01*
X217204D01*
X217866Y41628D01*
X218372Y42134D01*
X218647Y42796D01*
Y43512D01*
X218372Y44173D01*
X217866Y44679D01*
X217204Y44954D01*
D02*
G37*
G36*
X221258Y41900D02*
X220542D01*
X219880Y41626D01*
X219374Y41120D01*
X219100Y40458D01*
Y39742D01*
X219374Y39080D01*
X219880Y38574D01*
X220542Y38300D01*
X221258D01*
X221920Y38574D01*
X222426Y39080D01*
X222700Y39742D01*
Y40458D01*
X222426Y41120D01*
X221920Y41626D01*
X221258Y41900D01*
D02*
G37*
G36*
X196358Y38200D02*
X195642D01*
X194980Y37926D01*
X194474Y37420D01*
X194200Y36758D01*
Y36042D01*
X194474Y35380D01*
X194980Y34874D01*
X195642Y34600D01*
X196358D01*
X197020Y34874D01*
X197526Y35380D01*
X197800Y36042D01*
Y36758D01*
X197526Y37420D01*
X197020Y37926D01*
X196358Y38200D01*
D02*
G37*
G36*
X161558Y36800D02*
X160842D01*
X160180Y36526D01*
X159674Y36020D01*
X159400Y35358D01*
Y34642D01*
X159674Y33980D01*
X160180Y33474D01*
X160842Y33200D01*
X161558D01*
X162220Y33474D01*
X162726Y33980D01*
X163000Y34642D01*
Y35358D01*
X162726Y36020D01*
X162220Y36526D01*
X161558Y36800D01*
D02*
G37*
G36*
X177258Y35300D02*
X176542D01*
X175880Y35026D01*
X175374Y34520D01*
X175100Y33858D01*
Y33142D01*
X175374Y32480D01*
X175880Y31974D01*
X176542Y31700D01*
X177258D01*
X177920Y31974D01*
X178426Y32480D01*
X178700Y33142D01*
Y33858D01*
X178426Y34520D01*
X177920Y35026D01*
X177258Y35300D01*
D02*
G37*
G36*
X249905Y34300D02*
X249189D01*
X248528Y34026D01*
X248021Y33520D01*
X247747Y32858D01*
Y32142D01*
X248021Y31480D01*
X248528Y30974D01*
X249189Y30700D01*
X249905D01*
X250567Y30974D01*
X251073Y31480D01*
X251347Y32142D01*
Y32858D01*
X251073Y33520D01*
X250567Y34026D01*
X249905Y34300D01*
D02*
G37*
G36*
X243212D02*
X242496D01*
X241835Y34026D01*
X241328Y33520D01*
X241054Y32858D01*
Y32142D01*
X241328Y31480D01*
X241835Y30974D01*
X242496Y30700D01*
X243212D01*
X243874Y30974D01*
X244380Y31480D01*
X244654Y32142D01*
Y32858D01*
X244380Y33520D01*
X243874Y34026D01*
X243212Y34300D01*
D02*
G37*
G36*
X236520D02*
X235803D01*
X235142Y34026D01*
X234635Y33520D01*
X234361Y32858D01*
Y32142D01*
X234635Y31480D01*
X235142Y30974D01*
X235803Y30700D01*
X236520D01*
X237181Y30974D01*
X237687Y31480D01*
X237961Y32142D01*
Y32858D01*
X237687Y33520D01*
X237181Y34026D01*
X236520Y34300D01*
D02*
G37*
G36*
X229826D02*
X229111D01*
X228449Y34026D01*
X227942Y33520D01*
X227668Y32858D01*
Y32142D01*
X227942Y31480D01*
X228449Y30974D01*
X229111Y30700D01*
X229826D01*
X230488Y30974D01*
X230995Y31480D01*
X231269Y32142D01*
Y32858D01*
X230995Y33520D01*
X230488Y34026D01*
X229826Y34300D01*
D02*
G37*
G36*
X223134D02*
X222418D01*
X221756Y34026D01*
X221250Y33520D01*
X220976Y32858D01*
Y32142D01*
X221250Y31480D01*
X221756Y30974D01*
X222418Y30700D01*
X223134D01*
X223795Y30974D01*
X224302Y31480D01*
X224576Y32142D01*
Y32858D01*
X224302Y33520D01*
X223795Y34026D01*
X223134Y34300D01*
D02*
G37*
G36*
X216441D02*
X215725D01*
X215063Y34026D01*
X214557Y33520D01*
X214283Y32858D01*
Y32142D01*
X214557Y31480D01*
X215063Y30974D01*
X215725Y30700D01*
X216441D01*
X217102Y30974D01*
X217609Y31480D01*
X217883Y32142D01*
Y32858D01*
X217609Y33520D01*
X217102Y34026D01*
X216441Y34300D01*
D02*
G37*
G36*
X204437Y31721D02*
X203721D01*
X203059Y31447D01*
X202553Y30941D01*
X202279Y30279D01*
Y30270D01*
X201679Y30151D01*
X201526Y30520D01*
X201020Y31026D01*
X200358Y31300D01*
X199642D01*
X198980Y31026D01*
X198474Y30520D01*
X198200Y29858D01*
Y29142D01*
X198474Y28480D01*
X198980Y27974D01*
X199642Y27700D01*
X200358D01*
X201020Y27974D01*
X201526Y28480D01*
X201800Y29142D01*
Y29151D01*
X202400Y29270D01*
X202553Y28902D01*
X203059Y28395D01*
X203721Y28121D01*
X204437D01*
X205098Y28395D01*
X205605Y28902D01*
X205879Y29563D01*
Y30279D01*
X205605Y30941D01*
X205098Y31447D01*
X204437Y31721D01*
D02*
G37*
G36*
X189958Y33000D02*
X189242D01*
X188580Y32726D01*
X188074Y32220D01*
X187800Y31558D01*
Y30842D01*
X188074Y30180D01*
X188580Y29674D01*
X189242Y29400D01*
X189958D01*
X190620Y29674D01*
X191126Y30180D01*
X191400Y30842D01*
Y31558D01*
X191126Y32220D01*
X190620Y32726D01*
X189958Y33000D01*
D02*
G37*
G36*
X246555Y28257D02*
X245839D01*
X245177Y27983D01*
X244671Y27476D01*
X244397Y26815D01*
Y26099D01*
X244671Y25437D01*
X245177Y24931D01*
X245839Y24657D01*
X246555D01*
X247217Y24931D01*
X247723Y25437D01*
X247997Y26099D01*
Y26815D01*
X247723Y27476D01*
X247217Y27983D01*
X246555Y28257D01*
D02*
G37*
G36*
X239862D02*
X239146D01*
X238484Y27983D01*
X237978Y27476D01*
X237704Y26815D01*
Y26099D01*
X237978Y25437D01*
X238484Y24931D01*
X239146Y24657D01*
X239862D01*
X240524Y24931D01*
X241030Y25437D01*
X241304Y26099D01*
Y26815D01*
X241030Y27476D01*
X240524Y27983D01*
X239862Y28257D01*
D02*
G37*
G36*
X233169D02*
X232453D01*
X231791Y27983D01*
X231285Y27476D01*
X231011Y26815D01*
Y26099D01*
X231285Y25437D01*
X231791Y24931D01*
X232453Y24657D01*
X233169D01*
X233831Y24931D01*
X234337Y25437D01*
X234611Y26099D01*
Y26815D01*
X234337Y27476D01*
X233831Y27983D01*
X233169Y28257D01*
D02*
G37*
G36*
X226476D02*
X225760D01*
X225098Y27983D01*
X224592Y27476D01*
X224318Y26815D01*
Y26099D01*
X224592Y25437D01*
X225098Y24931D01*
X225760Y24657D01*
X226476D01*
X227138Y24931D01*
X227644Y25437D01*
X227918Y26099D01*
Y26815D01*
X227644Y27476D01*
X227138Y27983D01*
X226476Y28257D01*
D02*
G37*
G36*
X219783D02*
X219067D01*
X218406Y27983D01*
X217899Y27476D01*
X217625Y26815D01*
Y26099D01*
X217899Y25437D01*
X218406Y24931D01*
X219067Y24657D01*
X219783D01*
X220445Y24931D01*
X220951Y25437D01*
X221225Y26099D01*
Y26815D01*
X220951Y27476D01*
X220445Y27983D01*
X219783Y28257D01*
D02*
G37*
G36*
X112258Y27000D02*
X111542D01*
X110880Y26726D01*
X110374Y26220D01*
X110100Y25558D01*
Y24842D01*
X110374Y24180D01*
X110880Y23674D01*
X111542Y23400D01*
X112258D01*
X112920Y23674D01*
X113426Y24180D01*
X113700Y24842D01*
Y25558D01*
X113426Y26220D01*
X112920Y26726D01*
X112258Y27000D01*
D02*
G37*
G36*
X107958D02*
X107242D01*
X106580Y26726D01*
X106074Y26220D01*
X105800Y25558D01*
Y24842D01*
X106074Y24180D01*
X106580Y23674D01*
X107242Y23400D01*
X107958D01*
X108620Y23674D01*
X109126Y24180D01*
X109400Y24842D01*
Y25558D01*
X109126Y26220D01*
X108620Y26726D01*
X107958Y27000D01*
D02*
G37*
G36*
X47658Y25425D02*
X46942D01*
X46280Y25151D01*
X45774Y24645D01*
X45500Y23983D01*
Y23267D01*
X45774Y22605D01*
X45963Y22417D01*
X46230Y22025D01*
X45963Y21633D01*
X45774Y21445D01*
X45500Y20783D01*
Y20067D01*
X45774Y19405D01*
X46280Y18899D01*
X46942Y18625D01*
X47658D01*
X48320Y18899D01*
X48826Y19405D01*
X49100Y20067D01*
Y20783D01*
X48826Y21445D01*
X48638Y21633D01*
X48370Y22025D01*
X48638Y22417D01*
X48826Y22605D01*
X49100Y23267D01*
Y23983D01*
X48826Y24645D01*
X48320Y25151D01*
X47658Y25425D01*
D02*
G37*
G36*
X138358Y89300D02*
X137642D01*
X136980Y89026D01*
X136474Y88520D01*
X136200Y87858D01*
Y87142D01*
X136474Y86480D01*
X136980Y85974D01*
X137642Y85700D01*
X138358D01*
X139020Y85974D01*
X139526Y86480D01*
X139800Y87142D01*
Y87858D01*
X139526Y88520D01*
X139020Y89026D01*
X138358Y89300D01*
D02*
G37*
G36*
X260157Y83800D02*
X259441D01*
X258779Y83526D01*
X258273Y83020D01*
X257999Y82358D01*
Y81642D01*
X258273Y80980D01*
X258779Y80474D01*
X259441Y80200D01*
X260157D01*
X260819Y80474D01*
X261325Y80980D01*
X261599Y81642D01*
Y82358D01*
X261325Y83020D01*
X260819Y83526D01*
X260157Y83800D01*
D02*
G37*
G36*
X124708Y80058D02*
X123992D01*
X123331Y79784D01*
X122824Y79277D01*
X122550Y78616D01*
Y77900D01*
X122824Y77238D01*
X123331Y76732D01*
X123992Y76458D01*
X124708D01*
X125370Y76732D01*
X125876Y77238D01*
X126150Y77900D01*
Y78616D01*
X125876Y79277D01*
X125370Y79784D01*
X124708Y80058D01*
D02*
G37*
G36*
X156958Y79400D02*
X156242D01*
X155580Y79126D01*
X155074Y78620D01*
X154800Y77958D01*
Y77242D01*
X155074Y76580D01*
X155580Y76074D01*
X156242Y75800D01*
X156958D01*
X157620Y76074D01*
X158126Y76580D01*
X158400Y77242D01*
Y77958D01*
X158126Y78620D01*
X157620Y79126D01*
X156958Y79400D01*
D02*
G37*
G36*
X174858Y79300D02*
X174142D01*
X173480Y79026D01*
X172974Y78520D01*
X172700Y77858D01*
Y77142D01*
X172974Y76480D01*
X173480Y75974D01*
X174142Y75700D01*
X174858D01*
X175520Y75974D01*
X176026Y76480D01*
X176300Y77142D01*
Y77858D01*
X176026Y78520D01*
X175520Y79026D01*
X174858Y79300D01*
D02*
G37*
G36*
X204358Y75800D02*
X203642D01*
X202980Y75526D01*
X202474Y75020D01*
X202200Y74358D01*
Y73642D01*
X202474Y72980D01*
X202980Y72474D01*
X203642Y72200D01*
X204358D01*
X205020Y72474D01*
X205526Y72980D01*
X205800Y73642D01*
Y74358D01*
X205526Y75020D01*
X205020Y75526D01*
X204358Y75800D01*
D02*
G37*
G36*
X198458Y72700D02*
X197742D01*
X197080Y72426D01*
X196574Y71920D01*
X196300Y71258D01*
Y70542D01*
X196574Y69880D01*
X197080Y69374D01*
X197742Y69100D01*
X198458D01*
X199120Y69374D01*
X199626Y69880D01*
X199900Y70542D01*
Y71258D01*
X199626Y71920D01*
X199120Y72426D01*
X198458Y72700D01*
D02*
G37*
G36*
X203858Y71300D02*
X203142D01*
X202480Y71026D01*
X201974Y70520D01*
X201700Y69858D01*
Y69142D01*
X201974Y68480D01*
X202480Y67974D01*
X203142Y67700D01*
X203858D01*
X204520Y67974D01*
X205026Y68480D01*
X205300Y69142D01*
Y69858D01*
X205026Y70520D01*
X204520Y71026D01*
X203858Y71300D01*
D02*
G37*
G36*
X196858Y67300D02*
X196142D01*
X195480Y67026D01*
X194974Y66520D01*
X194700Y65858D01*
Y65142D01*
X194974Y64480D01*
X195480Y63974D01*
X196142Y63700D01*
X196858D01*
X197520Y63974D01*
X198026Y64480D01*
X198300Y65142D01*
Y65858D01*
X198026Y66520D01*
X197520Y67026D01*
X196858Y67300D01*
D02*
G37*
G36*
X206858Y66300D02*
X206142D01*
X205480Y66026D01*
X204974Y65520D01*
X204700Y64858D01*
Y64142D01*
X204974Y63480D01*
X205480Y62974D01*
X206142Y62700D01*
X206858D01*
X207520Y62974D01*
X208026Y63480D01*
X208300Y64142D01*
Y64858D01*
X208026Y65520D01*
X207520Y66026D01*
X206858Y66300D01*
D02*
G37*
G36*
X259941Y75343D02*
X259225D01*
X258563Y75069D01*
X258057Y74563D01*
X257783Y73901D01*
Y73185D01*
X258057Y72524D01*
X258563Y72017D01*
X259225Y71743D01*
X259941D01*
X260602Y72017D01*
X260907Y72322D01*
X261404Y72390D01*
X261648Y72279D01*
X261783Y72144D01*
X261961Y71752D01*
X261783Y71360D01*
X261521Y71098D01*
X261247Y70437D01*
Y69721D01*
X261521Y69059D01*
X261783Y68797D01*
X261961Y68405D01*
X261783Y68014D01*
X261521Y67752D01*
X261247Y67090D01*
Y66374D01*
X261521Y65713D01*
X261783Y65451D01*
X261961Y65059D01*
X261783Y64667D01*
X261521Y64405D01*
X261247Y63744D01*
Y63028D01*
X261521Y62366D01*
X261783Y62105D01*
X261961Y61713D01*
X261783Y61321D01*
X261521Y61059D01*
X261247Y60397D01*
Y59681D01*
X261521Y59020D01*
X261783Y58758D01*
X261961Y58366D01*
X261783Y57974D01*
X261521Y57713D01*
X261247Y57051D01*
Y56335D01*
X261521Y55673D01*
X261783Y55412D01*
X261961Y55020D01*
X261783Y54628D01*
X261521Y54366D01*
X261247Y53705D01*
Y52988D01*
X261521Y52327D01*
X261783Y52065D01*
X261961Y51673D01*
X261783Y51281D01*
X261521Y51020D01*
X261247Y50358D01*
Y49642D01*
X261521Y48980D01*
X261783Y48719D01*
X261961Y48327D01*
X261783Y47935D01*
X261521Y47673D01*
X261247Y47012D01*
Y46295D01*
X261521Y45634D01*
X261783Y45372D01*
X261961Y44980D01*
X261783Y44588D01*
X261521Y44327D01*
X261247Y43665D01*
Y42949D01*
X261521Y42287D01*
X261783Y42026D01*
X261961Y41634D01*
X261783Y41242D01*
X261521Y40980D01*
X261247Y40319D01*
Y39603D01*
X261521Y38941D01*
X261783Y38679D01*
X261961Y38287D01*
X261783Y37895D01*
X261521Y37634D01*
X261247Y36972D01*
Y36256D01*
X261521Y35594D01*
X261783Y35333D01*
X261961Y34941D01*
X261783Y34549D01*
X261521Y34287D01*
X261247Y33626D01*
Y32910D01*
X261521Y32248D01*
X261783Y31986D01*
X261961Y31594D01*
X261783Y31203D01*
X261521Y30941D01*
X261247Y30279D01*
Y29563D01*
X261521Y28902D01*
X261783Y28640D01*
X261961Y28248D01*
X261783Y27856D01*
X261521Y27594D01*
X261247Y26933D01*
Y26217D01*
X261521Y25555D01*
X262028Y25049D01*
X262689Y24775D01*
X263405D01*
X264067Y25049D01*
X264573Y25555D01*
X264847Y26217D01*
Y26933D01*
X264573Y27594D01*
X264312Y27856D01*
X264134Y28248D01*
X264312Y28640D01*
X264573Y28902D01*
X264847Y29563D01*
Y30279D01*
X264573Y30941D01*
X264312Y31203D01*
X264134Y31594D01*
X264312Y31986D01*
X264573Y32248D01*
X264847Y32910D01*
Y33626D01*
X264573Y34287D01*
X264312Y34549D01*
X264134Y34941D01*
X264312Y35333D01*
X264573Y35594D01*
X264847Y36256D01*
Y36972D01*
X264573Y37634D01*
X264312Y37895D01*
X264134Y38287D01*
X264312Y38679D01*
X264573Y38941D01*
X264847Y39603D01*
Y40319D01*
X264573Y40980D01*
X264312Y41242D01*
X264134Y41634D01*
X264312Y42026D01*
X264573Y42287D01*
X264847Y42949D01*
Y43665D01*
X264573Y44327D01*
X264312Y44588D01*
X264134Y44980D01*
X264312Y45372D01*
X264573Y45634D01*
X264847Y46295D01*
Y47012D01*
X264573Y47673D01*
X264312Y47935D01*
X264134Y48327D01*
X264312Y48719D01*
X264573Y48980D01*
X264847Y49642D01*
Y50358D01*
X264573Y51020D01*
X264312Y51281D01*
X264134Y51673D01*
X264312Y52065D01*
X264573Y52327D01*
X264847Y52988D01*
Y53705D01*
X264573Y54366D01*
X264312Y54628D01*
X264134Y55020D01*
X264312Y55412D01*
X264573Y55673D01*
X264847Y56335D01*
Y57051D01*
X264573Y57713D01*
X264312Y57974D01*
X264134Y58366D01*
X264312Y58758D01*
X264573Y59020D01*
X264847Y59681D01*
Y60397D01*
X264573Y61059D01*
X264312Y61321D01*
X264134Y61713D01*
X264312Y62105D01*
X264573Y62366D01*
X264847Y63028D01*
Y63744D01*
X264573Y64405D01*
X264312Y64667D01*
X264134Y65059D01*
X264312Y65451D01*
X264573Y65713D01*
X264847Y66374D01*
Y67090D01*
X264573Y67752D01*
X264312Y68014D01*
X264134Y68405D01*
X264312Y68797D01*
X264573Y69059D01*
X264847Y69721D01*
Y70437D01*
X264573Y71098D01*
X264312Y71360D01*
X264134Y71752D01*
X264312Y72144D01*
X264573Y72406D01*
X264847Y73067D01*
Y73783D01*
X264573Y74445D01*
X264067Y74951D01*
X263405Y75225D01*
X262689D01*
X262028Y74951D01*
X261723Y74647D01*
X261226Y74579D01*
X260982Y74690D01*
X260602Y75069D01*
X259941Y75343D01*
D02*
G37*
%LPD*%
G36*
X260234Y74519D02*
X260523Y74230D01*
X260632Y74185D01*
X260714Y74098D01*
X260957Y73988D01*
X261139Y73981D01*
X261314Y73936D01*
X261811Y74003D01*
X261991Y74108D01*
X262182Y74188D01*
X262396Y74401D01*
X262818Y74576D01*
X263276D01*
X263699Y74401D01*
X264023Y74077D01*
X264198Y73654D01*
Y73196D01*
X264023Y72773D01*
X263852Y72603D01*
X263807Y72493D01*
X263720Y72412D01*
X263542Y72020D01*
X263542Y71997D01*
X263526Y71980D01*
X263533Y71752D01*
X263526Y71523D01*
X263542Y71507D01*
X263542Y71484D01*
X263720Y71092D01*
X263807Y71011D01*
X263852Y70901D01*
X264023Y70731D01*
X264198Y70308D01*
Y69850D01*
X264023Y69427D01*
X263852Y69257D01*
X263807Y69147D01*
X263720Y69066D01*
X263542Y68674D01*
X263542Y68651D01*
X263526Y68634D01*
X263533Y68405D01*
X263526Y68177D01*
X263542Y68160D01*
X263542Y68137D01*
X263720Y67745D01*
X263807Y67664D01*
X263852Y67554D01*
X264023Y67384D01*
X264198Y66961D01*
Y66503D01*
X264023Y66080D01*
X263852Y65910D01*
X263807Y65800D01*
X263720Y65719D01*
X263542Y65327D01*
X263542Y65304D01*
X263526Y65288D01*
X263533Y65059D01*
X263526Y64831D01*
X263542Y64814D01*
X263542Y64791D01*
X263720Y64399D01*
X263807Y64318D01*
X263852Y64208D01*
X264023Y64038D01*
X264198Y63615D01*
Y63157D01*
X264023Y62734D01*
X263852Y62564D01*
X263807Y62454D01*
X263720Y62373D01*
X263542Y61981D01*
X263542Y61958D01*
X263526Y61941D01*
X263533Y61712D01*
X263526Y61484D01*
X263542Y61467D01*
X263542Y61444D01*
X263720Y61052D01*
X263807Y60971D01*
X263852Y60861D01*
X264023Y60691D01*
X264198Y60268D01*
Y59811D01*
X264023Y59388D01*
X263852Y59217D01*
X263807Y59108D01*
X263720Y59026D01*
X263542Y58635D01*
X263542Y58611D01*
X263526Y58595D01*
X263533Y58366D01*
X263526Y58138D01*
X263542Y58121D01*
X263542Y58098D01*
X263720Y57706D01*
X263807Y57625D01*
X263852Y57515D01*
X264023Y57345D01*
X264198Y56922D01*
Y56464D01*
X264023Y56041D01*
X263852Y55871D01*
X263807Y55761D01*
X263720Y55680D01*
X263542Y55288D01*
X263542Y55265D01*
X263526Y55248D01*
X263533Y55020D01*
X263526Y54791D01*
X263542Y54774D01*
X263542Y54751D01*
X263720Y54359D01*
X263807Y54278D01*
X263852Y54168D01*
X264023Y53998D01*
X264198Y53575D01*
Y53118D01*
X264023Y52695D01*
X263852Y52524D01*
X263807Y52415D01*
X263720Y52334D01*
X263542Y51942D01*
X263542Y51919D01*
X263526Y51902D01*
X263533Y51673D01*
X263526Y51445D01*
X263542Y51428D01*
X263542Y51405D01*
X263720Y51013D01*
X263807Y50932D01*
X263852Y50822D01*
X264023Y50652D01*
X264198Y50229D01*
Y49771D01*
X264023Y49348D01*
X263852Y49178D01*
X263807Y49068D01*
X263720Y48987D01*
X263542Y48595D01*
X263542Y48572D01*
X263526Y48555D01*
X263533Y48327D01*
X263526Y48098D01*
X263542Y48081D01*
X263542Y48058D01*
X263720Y47666D01*
X263807Y47585D01*
X263852Y47476D01*
X264023Y47305D01*
X264198Y46882D01*
Y46425D01*
X264023Y46002D01*
X263852Y45832D01*
X263807Y45722D01*
X263720Y45641D01*
X263542Y45249D01*
X263542Y45226D01*
X263526Y45209D01*
X263533Y44980D01*
X263526Y44752D01*
X263542Y44735D01*
X263542Y44712D01*
X263720Y44320D01*
X263807Y44239D01*
X263852Y44129D01*
X264023Y43959D01*
X264198Y43536D01*
Y43078D01*
X264023Y42655D01*
X263852Y42485D01*
X263807Y42375D01*
X263720Y42294D01*
X263542Y41902D01*
X263542Y41879D01*
X263526Y41862D01*
X263533Y41634D01*
X263526Y41405D01*
X263542Y41389D01*
X263542Y41366D01*
X263720Y40973D01*
X263807Y40892D01*
X263852Y40783D01*
X264023Y40612D01*
X264198Y40189D01*
Y39732D01*
X264023Y39309D01*
X263852Y39139D01*
X263807Y39029D01*
X263720Y38948D01*
X263542Y38556D01*
X263542Y38533D01*
X263526Y38516D01*
X263533Y38287D01*
X263526Y38059D01*
X263542Y38042D01*
X263542Y38019D01*
X263720Y37627D01*
X263807Y37546D01*
X263852Y37436D01*
X264023Y37266D01*
X264198Y36843D01*
Y36385D01*
X264023Y35962D01*
X263852Y35792D01*
X263807Y35682D01*
X263720Y35601D01*
X263542Y35209D01*
X263542Y35186D01*
X263526Y35169D01*
X263533Y34941D01*
X263526Y34712D01*
X263542Y34696D01*
X263542Y34673D01*
X263720Y34281D01*
X263807Y34200D01*
X263852Y34090D01*
X264023Y33920D01*
X264198Y33497D01*
Y33039D01*
X264023Y32616D01*
X263852Y32446D01*
X263807Y32336D01*
X263720Y32255D01*
X263542Y31863D01*
X263542Y31840D01*
X263526Y31823D01*
X263533Y31594D01*
X263526Y31366D01*
X263542Y31349D01*
X263542Y31326D01*
X263720Y30934D01*
X263807Y30853D01*
X263852Y30743D01*
X264023Y30573D01*
X264198Y30150D01*
Y29692D01*
X264023Y29269D01*
X263852Y29099D01*
X263807Y28989D01*
X263720Y28908D01*
X263542Y28516D01*
X263542Y28493D01*
X263526Y28477D01*
X263533Y28248D01*
X263526Y28020D01*
X263542Y28003D01*
X263542Y27980D01*
X263720Y27588D01*
X263807Y27507D01*
X263852Y27397D01*
X264023Y27226D01*
X264198Y26804D01*
Y26346D01*
X264023Y25923D01*
X263699Y25599D01*
X263276Y25424D01*
X262818D01*
X262396Y25599D01*
X262072Y25923D01*
X261897Y26346D01*
Y26804D01*
X262072Y27226D01*
X262242Y27397D01*
X262288Y27507D01*
X262374Y27588D01*
X262552Y27980D01*
X262553Y28003D01*
X262569Y28020D01*
X262561Y28248D01*
X262569Y28477D01*
X262553Y28493D01*
X262552Y28516D01*
X262374Y28908D01*
X262288Y28989D01*
X262242Y29099D01*
X262072Y29269D01*
X261897Y29692D01*
Y30150D01*
X262072Y30573D01*
X262242Y30743D01*
X262288Y30853D01*
X262374Y30934D01*
X262552Y31326D01*
X262553Y31349D01*
X262569Y31366D01*
X262561Y31595D01*
X262569Y31823D01*
X262553Y31840D01*
X262552Y31863D01*
X262374Y32255D01*
X262288Y32336D01*
X262242Y32446D01*
X262072Y32616D01*
X261897Y33039D01*
Y33497D01*
X262072Y33920D01*
X262242Y34090D01*
X262288Y34200D01*
X262374Y34281D01*
X262552Y34673D01*
X262553Y34696D01*
X262569Y34712D01*
X262561Y34941D01*
X262569Y35169D01*
X262553Y35186D01*
X262552Y35209D01*
X262374Y35601D01*
X262288Y35682D01*
X262242Y35792D01*
X262072Y35962D01*
X261897Y36385D01*
Y36843D01*
X262072Y37266D01*
X262242Y37436D01*
X262288Y37546D01*
X262374Y37627D01*
X262552Y38019D01*
X262553Y38042D01*
X262569Y38059D01*
X262561Y38287D01*
X262569Y38516D01*
X262553Y38533D01*
X262552Y38556D01*
X262374Y38948D01*
X262288Y39029D01*
X262242Y39139D01*
X262072Y39309D01*
X261897Y39732D01*
Y40189D01*
X262072Y40612D01*
X262242Y40783D01*
X262288Y40892D01*
X262374Y40973D01*
X262552Y41366D01*
X262553Y41389D01*
X262569Y41405D01*
X262561Y41634D01*
X262569Y41862D01*
X262553Y41879D01*
X262552Y41902D01*
X262374Y42294D01*
X262288Y42375D01*
X262242Y42485D01*
X262072Y42655D01*
X261897Y43078D01*
Y43536D01*
X262072Y43959D01*
X262242Y44129D01*
X262288Y44239D01*
X262374Y44320D01*
X262552Y44712D01*
X262553Y44735D01*
X262569Y44752D01*
X262561Y44980D01*
X262569Y45209D01*
X262553Y45226D01*
X262552Y45249D01*
X262374Y45641D01*
X262288Y45722D01*
X262242Y45832D01*
X262072Y46002D01*
X261897Y46425D01*
Y46882D01*
X262072Y47305D01*
X262242Y47476D01*
X262288Y47585D01*
X262374Y47666D01*
X262552Y48058D01*
X262553Y48081D01*
X262569Y48098D01*
X262561Y48327D01*
X262569Y48555D01*
X262553Y48572D01*
X262552Y48595D01*
X262374Y48987D01*
X262288Y49068D01*
X262242Y49178D01*
X262072Y49348D01*
X261897Y49771D01*
Y50229D01*
X262072Y50652D01*
X262242Y50822D01*
X262288Y50932D01*
X262374Y51013D01*
X262552Y51405D01*
X262553Y51428D01*
X262569Y51445D01*
X262561Y51673D01*
X262569Y51902D01*
X262553Y51919D01*
X262552Y51942D01*
X262374Y52334D01*
X262288Y52415D01*
X262242Y52524D01*
X262072Y52695D01*
X261897Y53118D01*
Y53575D01*
X262072Y53998D01*
X262242Y54168D01*
X262288Y54278D01*
X262374Y54359D01*
X262552Y54751D01*
X262553Y54774D01*
X262569Y54791D01*
X262561Y55020D01*
X262569Y55248D01*
X262553Y55265D01*
X262552Y55288D01*
X262374Y55680D01*
X262288Y55761D01*
X262242Y55871D01*
X262072Y56041D01*
X261897Y56464D01*
Y56922D01*
X262072Y57345D01*
X262242Y57515D01*
X262288Y57625D01*
X262374Y57706D01*
X262552Y58098D01*
X262553Y58121D01*
X262569Y58138D01*
X262561Y58366D01*
X262569Y58595D01*
X262553Y58611D01*
X262552Y58635D01*
X262374Y59026D01*
X262288Y59108D01*
X262242Y59217D01*
X262072Y59388D01*
X261897Y59811D01*
Y60268D01*
X262072Y60691D01*
X262242Y60861D01*
X262288Y60971D01*
X262374Y61052D01*
X262552Y61444D01*
X262553Y61467D01*
X262569Y61484D01*
X262561Y61713D01*
X262569Y61941D01*
X262553Y61958D01*
X262552Y61981D01*
X262374Y62373D01*
X262288Y62454D01*
X262242Y62564D01*
X262072Y62734D01*
X261897Y63157D01*
Y63615D01*
X262072Y64038D01*
X262242Y64208D01*
X262288Y64318D01*
X262374Y64399D01*
X262552Y64791D01*
X262553Y64814D01*
X262569Y64831D01*
X262561Y65059D01*
X262569Y65288D01*
X262553Y65304D01*
X262552Y65327D01*
X262374Y65719D01*
X262288Y65800D01*
X262242Y65910D01*
X262072Y66080D01*
X261897Y66503D01*
Y66961D01*
X262072Y67384D01*
X262242Y67554D01*
X262288Y67664D01*
X262374Y67745D01*
X262552Y68137D01*
X262553Y68160D01*
X262569Y68177D01*
X262561Y68406D01*
X262569Y68634D01*
X262553Y68651D01*
X262552Y68674D01*
X262374Y69066D01*
X262288Y69147D01*
X262242Y69257D01*
X262072Y69427D01*
X261897Y69850D01*
Y70308D01*
X262072Y70731D01*
X262242Y70901D01*
X262288Y71011D01*
X262374Y71092D01*
X262552Y71484D01*
X262553Y71507D01*
X262569Y71523D01*
X262561Y71752D01*
X262569Y71980D01*
X262553Y71997D01*
X262552Y72020D01*
X262374Y72412D01*
X262288Y72493D01*
X262242Y72603D01*
X262107Y72738D01*
X261997Y72784D01*
X261916Y72870D01*
X261672Y72981D01*
X261491Y72987D01*
X261316Y73033D01*
X260819Y72965D01*
X260639Y72860D01*
X260447Y72781D01*
X260234Y72568D01*
X259811Y72393D01*
X259354D01*
X258931Y72568D01*
X258607Y72892D01*
X258432Y73314D01*
Y73772D01*
X258607Y74195D01*
X258931Y74519D01*
X259354Y74694D01*
X259811D01*
X260234Y74519D01*
D02*
G37*
D52*
X141500Y50000D02*
D03*
X136500D02*
D03*
X37500Y55000D02*
D03*
Y50000D02*
D03*
Y45000D02*
D03*
D58*
X249500Y89500D02*
X249600Y89600D01*
X254500D01*
D64*
X6752Y39016D02*
D03*
Y5000D02*
D03*
Y95000D02*
D03*
Y60984D02*
D03*
D65*
X22500Y39016D02*
D03*
Y5000D02*
D03*
Y95000D02*
D03*
Y60984D02*
D03*
D66*
X90000Y75000D02*
D03*
X97000Y87000D02*
D03*
X83000Y85500D02*
D03*
X167600Y62500D02*
D03*
X173300Y62800D02*
D03*
X47600Y69100D02*
D03*
X54000Y59100D02*
D03*
X96800Y54500D02*
D03*
X96000Y50700D02*
D03*
X64200Y51200D02*
D03*
X82000Y56600D02*
D03*
X80400Y60000D02*
D03*
X198100Y70900D02*
D03*
X156600Y77600D02*
D03*
X174500Y77500D02*
D03*
X188500Y64500D02*
D03*
X196500Y65500D02*
D03*
X170300Y10900D02*
D03*
X173100Y13900D02*
D03*
X219425Y26457D02*
D03*
X206500Y64500D02*
D03*
X87200Y67300D02*
D03*
X79000Y88600D02*
D03*
X222772Y73543D02*
D03*
X196000Y36400D02*
D03*
X46800Y32900D02*
D03*
X107600Y25200D02*
D03*
X111900D02*
D03*
X48000Y15000D02*
D03*
X249500Y89500D02*
D03*
X254600Y89700D02*
D03*
X161200Y35000D02*
D03*
X176900Y33500D02*
D03*
X189600Y31200D02*
D03*
X144400Y33800D02*
D03*
X245300Y90000D02*
D03*
X98700Y74100D02*
D03*
X98500Y65800D02*
D03*
X44300Y17700D02*
D03*
X71000Y64000D02*
D03*
X59900Y50000D02*
D03*
X82500Y48700D02*
D03*
X38000Y75000D02*
D03*
X34000Y86500D02*
D03*
X31000Y90500D02*
D03*
X28500Y61000D02*
D03*
X29850Y58000D02*
D03*
X44000Y81500D02*
D03*
X41500Y73000D02*
D03*
X31926Y77949D02*
D03*
X35900Y77800D02*
D03*
X46300Y73800D02*
D03*
Y79000D02*
D03*
X177600Y53200D02*
D03*
X177500Y45700D02*
D03*
X47300Y23625D02*
D03*
Y20425D02*
D03*
X38500Y27000D02*
D03*
X181218Y45300D02*
D03*
X181200Y51800D02*
D03*
X204500Y44100D02*
D03*
Y53000D02*
D03*
X220900Y40100D02*
D03*
X104100Y23500D02*
D03*
X111800Y21800D02*
D03*
X201118Y44000D02*
D03*
X201000Y53000D02*
D03*
X217000Y54500D02*
D03*
X31900Y42500D02*
D03*
X29500Y39500D02*
D03*
X47000Y27500D02*
D03*
X36900Y13100D02*
D03*
X30500Y8000D02*
D03*
X51500Y15000D02*
D03*
X58500D02*
D03*
X60000Y29000D02*
D03*
X56000D02*
D03*
X51500D02*
D03*
X97000Y32000D02*
D03*
X109000Y42000D02*
D03*
X97500D02*
D03*
X105000D02*
D03*
X113000D02*
D03*
X101500D02*
D03*
X109000Y37000D02*
D03*
X97500D02*
D03*
X105000D02*
D03*
X113000D02*
D03*
X101500D02*
D03*
Y32000D02*
D03*
X113000D02*
D03*
X105000D02*
D03*
X109000D02*
D03*
X122500Y41000D02*
D03*
X216980Y60020D02*
D03*
X73000Y75000D02*
D03*
X69000D02*
D03*
X73000Y79000D02*
D03*
X69000D02*
D03*
X71000Y89000D02*
D03*
X47500Y84000D02*
D03*
X61500Y66000D02*
D03*
X124350Y78258D02*
D03*
X138000Y87500D02*
D03*
X221500Y57000D02*
D03*
X203500Y69500D02*
D03*
X204000Y74000D02*
D03*
X200000Y29500D02*
D03*
X204079Y29921D02*
D03*
X216846Y43154D02*
D03*
X205559Y22441D02*
D03*
X267000Y17500D02*
D03*
X259799Y82000D02*
D03*
X242700Y53200D02*
D03*
Y46800D02*
D03*
X236300D02*
D03*
Y53200D02*
D03*
X251508Y56492D02*
D03*
X239508Y62004D02*
D03*
X251508Y49996D02*
D03*
Y43500D02*
D03*
X239500Y37996D02*
D03*
X227500Y43508D02*
D03*
Y50004D02*
D03*
Y56500D02*
D03*
X259583Y73543D02*
D03*
X263047Y73425D02*
D03*
Y70079D02*
D03*
Y66732D02*
D03*
Y63386D02*
D03*
Y60039D02*
D03*
Y56693D02*
D03*
Y53347D02*
D03*
Y50000D02*
D03*
Y46654D02*
D03*
Y43307D02*
D03*
Y39961D02*
D03*
Y36614D02*
D03*
Y33268D02*
D03*
Y29921D02*
D03*
Y26575D02*
D03*
X246193Y67500D02*
D03*
X256236Y26457D02*
D03*
X252890D02*
D03*
X216079Y73543D02*
D03*
X216083Y32500D02*
D03*
X249547D02*
D03*
X246197Y26457D02*
D03*
X242854Y32500D02*
D03*
X239504Y26457D02*
D03*
X236161Y32500D02*
D03*
X232811Y26457D02*
D03*
X229468Y32500D02*
D03*
X226118Y26457D02*
D03*
X222776Y32500D02*
D03*
X219421Y67500D02*
D03*
X229465Y73543D02*
D03*
X226114Y67500D02*
D03*
X236157Y73543D02*
D03*
X232807Y67500D02*
D03*
X239500D02*
D03*
X242850Y73543D02*
D03*
X249543D02*
D03*
D67*
X93864Y75464D02*
X100458Y82058D01*
X255000Y84600D02*
Y95000D01*
X180874Y64500D02*
X188500D01*
X192126D01*
X195926Y60700D01*
X163316Y82058D02*
X180874Y64500D01*
X195926Y60700D02*
X208074D01*
X211289Y63915D01*
Y74128D01*
X218761Y81600D01*
X48000Y15000D02*
X58500D01*
X252000Y81600D02*
X254400Y84000D01*
X255000Y84600D01*
X218761Y81600D02*
X252000D01*
X153000Y82058D02*
X163316D01*
X100458D02*
X153000D01*
X141500Y70558D02*
X153000Y82058D01*
X141500Y50000D02*
Y70558D01*
X93864Y60064D02*
Y75464D01*
X82500Y48700D02*
X93864Y60064D01*
X136446Y50000D02*
X136500D01*
X132346Y45900D02*
X136446Y50000D01*
X58500Y15000D02*
X67600D01*
X67800Y15200D01*
D68*
X254400Y68100D02*
Y84000D01*
X256600Y31947D02*
Y65900D01*
X254400Y68100D02*
X256600Y65900D01*
X259747Y20086D02*
Y28800D01*
X256600Y31947D02*
X259747Y28800D01*
Y20086D02*
X265000Y14833D01*
Y5000D02*
Y14833D01*
D69*
X128850Y42404D02*
X132346Y45900D01*
X128850Y20850D02*
Y42404D01*
X67800Y15200D02*
X123200D01*
X128850Y20850D01*
D70*
X265000Y5000D02*
D03*
Y95000D02*
D03*
D71*
X35000Y5000D02*
D03*
X45000D02*
D03*
X55000D02*
D03*
X65000D02*
D03*
X75000D02*
D03*
X85000D02*
D03*
X95000D02*
D03*
X105000D02*
D03*
X115000D02*
D03*
X125000D02*
D03*
X135000D02*
D03*
X145000D02*
D03*
X155000D02*
D03*
X165000D02*
D03*
X175000D02*
D03*
X185000D02*
D03*
X195000D02*
D03*
X205000D02*
D03*
X215000D02*
D03*
X225000D02*
D03*
X235000D02*
D03*
X245000D02*
D03*
X255000D02*
D03*
X35000Y95000D02*
D03*
X45000D02*
D03*
X55000D02*
D03*
X65000D02*
D03*
X75000D02*
D03*
X85000D02*
D03*
X95000D02*
D03*
X105000D02*
D03*
X115000D02*
D03*
X125000D02*
D03*
X135000D02*
D03*
X145000D02*
D03*
X155000D02*
D03*
X165000D02*
D03*
X175000D02*
D03*
X185000D02*
D03*
X195000D02*
D03*
X205000D02*
D03*
X215000D02*
D03*
X225000D02*
D03*
X235000D02*
D03*
X245000D02*
D03*
X255000D02*
D03*
M02*
