M48
;Layer_Color=9474304
;FILE_FORMAT=2:5
INCH,LZ
;TYPE=PLATED
T01F00S00C0.01200
T03F00S00C0.02800
T04F00S00C0.04200
%
T01
X00305Y0008
X00369Y00131
X00443Y00177
X00473Y0020425
Y0023625
X0047Y00275
X00468Y00329
X00515Y0029
X0056
X006
X00585Y0015
X00515
X0048
X00385Y0027
X00295Y00395
X00319Y00425
X002985Y0058
X00285Y0061
X0031926Y0077949
X00359Y00778
X0038Y0075
X00415Y0073
X00463Y00738
Y0079
X0044Y00815
X00475Y0084
X00476Y00691
X0054Y00591
X00615Y0066
X0071Y0064
X0073Y0075
X0069
Y0079
X0073
X0071Y0089
X0079Y00886
X0083Y00855
X00893Y00755
X00872Y00673
X00804Y006
X0082Y00566
X00825Y00487
X00642Y00512
X00599Y005
X0034Y00865
X0031Y00905
X0097Y0087
X00987Y00741
X00985Y00658
X00968Y00545
X0096Y00507
X00975Y0042
X01015
X0105
X0109
X0113
Y0037
X0109
X0105
X01015
X00975
X0097Y0032
X01015
X0105
X0109
X0113
X01119Y00252
X01118Y00218
X01076Y00252
X01041Y00235
X01225Y0041
X01444Y00338
X01612Y0035
X01769Y00335
X01775Y00457
X0181218Y00453
X01812Y00518
X01776Y00532
X01733Y00628
X01676Y00625
X01745Y00775
X01566Y00776
X0138Y00875
X0126Y00766
X01885Y00645
X01965Y00655
X01981Y00709
X02035Y00695
X0204Y0074
X02065Y00645
X02045Y0053
X0201
X0201118Y0044
X02045Y00441
X0216846Y0043154
X02209Y00401
X0222776Y00325
X0229468
X0236161
X0242854
X0249547
X0246197Y0026457
X0239504
X0232811
X0226118
X0219425
X0216083Y00325
X0204079Y0029921
X02Y00295
X0196Y00364
X01896Y00312
X0205559Y0022441
X01731Y00139
X01703Y00109
X02275Y0043508
Y0050004
Y00565
X02215Y0057
X0217Y00545
X021698Y006002
X0219421Y00675
X0226114
X0232807
X02395
X0239508Y0062004
X02427Y00532
Y00468
X02363
Y00532
X02395Y0037996
X0246193Y00675
X024285Y0073543
X0249543
X0236157
X0229465
X0222772
X0216079
X02453Y009
X02495Y00895
X02546Y00897
X0259799Y0082
X0259583Y0073543
X0263047Y0073425
Y0070079
Y0066732
Y0063386
Y0060039
Y0056693
Y0053347
Y005
Y0046654
Y0043307
Y0039961
Y0036614
Y0033268
Y0029921
Y0026575
X0256236Y0026457
X025289
X0251508Y00435
Y0049996
Y0056492
X0267Y00175
T03
X00375Y0045
Y005
Y0055
X01365Y005
X01415
T04
X0035Y0005
X0045
X0055
X0065
X0075
X0085
X0095
X0105
X0115
X0125
X0135
X0145
X0155
X0165
X0175
X0185
X0195
X0205
X0215
X0225
X0235
X0245
X0255
X0265
Y0095
X0255
X0245
X0235
X0225
X0215
X0205
X0195
X0185
X0175
X0165
X0155
X0145
X0135
X0125
X0115
X0105
X0095
X0085
X0075
X0065
X0055
X0045
X0035
M30
