G04*
G04 #@! TF.GenerationSoftware,Altium Limited,Altium Designer,24.5.2 (23)*
G04*
G04 Layer_Physical_Order=1*
G04 Layer_Color=255*
%FSLAX25Y25*%
%MOIN*%
G70*
G04*
G04 #@! TF.SameCoordinates,691D43E0-75DC-4999-8F72-E41A8CCF96D7*
G04*
G04*
G04 #@! TF.FilePolarity,Positive*
G04*
G01*
G75*
%ADD11C,0.00600*%
G04:AMPARAMS|DCode=15|XSize=23.23mil|YSize=24.02mil|CornerRadius=1.74mil|HoleSize=0mil|Usage=FLASHONLY|Rotation=270.000|XOffset=0mil|YOffset=0mil|HoleType=Round|Shape=RoundedRectangle|*
%AMROUNDEDRECTD15*
21,1,0.02323,0.02053,0,0,270.0*
21,1,0.01974,0.02402,0,0,270.0*
1,1,0.00348,-0.01027,-0.00987*
1,1,0.00348,-0.01027,0.00987*
1,1,0.00348,0.01027,0.00987*
1,1,0.00348,0.01027,-0.00987*
%
%ADD15ROUNDEDRECTD15*%
%ADD16R,0.08465X0.03740*%
%ADD17R,0.08465X0.12795*%
%ADD18R,0.08100X0.08100*%
%ADD19R,0.03600X0.01000*%
%ADD20R,0.01000X0.03600*%
%ADD21R,0.04724X0.04724*%
%ADD22R,0.03150X0.01575*%
%ADD23R,0.01575X0.03150*%
%ADD24R,0.03150X0.03150*%
%ADD25R,0.06100X0.05100*%
%ADD26R,0.02756X0.03543*%
%ADD27R,0.02362X0.02126*%
%ADD28R,0.02126X0.02362*%
%ADD29R,0.03543X0.02756*%
%ADD30R,0.04800X0.02200*%
%ADD31R,0.04528X0.01073*%
%ADD32R,0.04528X0.02223*%
%ADD33R,0.02400X0.01600*%
%ADD34R,0.01600X0.02400*%
G04:AMPARAMS|DCode=35|XSize=25.2mil|YSize=28.35mil|CornerRadius=3.15mil|HoleSize=0mil|Usage=FLASHONLY|Rotation=270.000|XOffset=0mil|YOffset=0mil|HoleType=Round|Shape=RoundedRectangle|*
%AMROUNDEDRECTD35*
21,1,0.02520,0.02205,0,0,270.0*
21,1,0.01890,0.02835,0,0,270.0*
1,1,0.00630,-0.01102,-0.00945*
1,1,0.00630,-0.01102,0.00945*
1,1,0.00630,0.01102,0.00945*
1,1,0.00630,0.01102,-0.00945*
%
%ADD35ROUNDEDRECTD35*%
G04:AMPARAMS|DCode=36|XSize=25.2mil|YSize=28.35mil|CornerRadius=3.15mil|HoleSize=0mil|Usage=FLASHONLY|Rotation=180.000|XOffset=0mil|YOffset=0mil|HoleType=Round|Shape=RoundedRectangle|*
%AMROUNDEDRECTD36*
21,1,0.02520,0.02205,0,0,180.0*
21,1,0.01890,0.02835,0,0,180.0*
1,1,0.00630,-0.00945,0.01102*
1,1,0.00630,0.00945,0.01102*
1,1,0.00630,0.00945,-0.01102*
1,1,0.00630,-0.00945,-0.01102*
%
%ADD36ROUNDEDRECTD36*%
%ADD52C,0.04200*%
%ADD55R,0.06200X0.06200*%
%ADD56C,0.06200*%
%ADD57R,0.01575X0.01575*%
%ADD58C,0.01500*%
%ADD59C,0.02000*%
%ADD60C,0.00603*%
%ADD61C,0.01200*%
%ADD62C,0.01001*%
%ADD63C,0.02500*%
%ADD64O,0.08661X0.03937*%
%ADD65O,0.07087X0.03937*%
%ADD66C,0.02400*%
G36*
X255800Y89100D02*
Y84000D01*
X246400D01*
Y86800D01*
X247000Y87200D01*
Y88700D01*
X249200Y90900D01*
X255800D01*
Y89100D01*
D02*
G37*
G36*
X89800Y83500D02*
X89200D01*
Y79400D01*
Y77956D01*
X86714D01*
X84600Y79700D01*
X84000Y80300D01*
X80500D01*
Y86100D01*
Y87100D01*
X87000D01*
Y88297D01*
X89800D01*
Y83500D01*
D02*
G37*
G36*
X60063Y72200D02*
X58600D01*
X55731Y69331D01*
X55628Y69262D01*
X55559Y69159D01*
X55200Y68800D01*
Y59700D01*
Y59200D01*
X57300Y57100D01*
X59800D01*
Y54300D01*
X51400Y54300D01*
X51400Y68000D01*
X57300Y73900D01*
X60063Y73900D01*
Y72200D01*
D02*
G37*
G36*
X45500Y62900D02*
Y52900D01*
X35041D01*
X35000Y53000D01*
Y67300D01*
X41100D01*
X45500Y62900D01*
D02*
G37*
G36*
X253000Y36500D02*
X226200D01*
Y63400D01*
X253000D01*
Y36500D01*
D02*
G37*
G36*
X54600Y40400D02*
X54900Y40100D01*
X55033Y40000D01*
X67300D01*
Y36100D01*
X60600D01*
X60200Y36500D01*
X52100D01*
X40700Y47900D01*
X35300D01*
Y52100D01*
X42900D01*
X54600Y40400D01*
D02*
G37*
G36*
X118100Y52900D02*
X118100Y28377D01*
X117674Y27954D01*
X104544Y28044D01*
X100838Y24338D01*
Y19338D01*
X74000D01*
Y23600D01*
X72100Y25500D01*
X60700Y25500D01*
Y23900D01*
X59400Y22600D01*
X50000D01*
Y34580D01*
X51372Y35600D01*
X58500D01*
Y33000D01*
X71260Y32983D01*
X74000Y35800D01*
Y42700D01*
X94591D01*
X102000Y48007D01*
X102000Y55000D01*
X116000D01*
X118100Y52900D01*
D02*
G37*
G36*
X44600Y40900D02*
Y35130D01*
X39677Y30345D01*
X35300D01*
Y47100D01*
X38400D01*
X44600Y40900D01*
D02*
G37*
G36*
X68000Y21800D02*
Y17000D01*
X67000D01*
Y11000D01*
X46000D01*
Y16042D01*
X47649Y17200D01*
X49800D01*
Y21700D01*
X61791D01*
Y23100D01*
X68000D01*
Y21800D01*
D02*
G37*
D11*
X103000Y83201D02*
X109470D01*
X98700Y74100D02*
Y78200D01*
X100299Y79799D01*
X194200Y17700D02*
X208035D01*
X210841Y14500D02*
Y14894D01*
X208035Y17700D02*
X210841Y14894D01*
X247729Y9800D02*
X259583Y21654D01*
X235000Y6100D02*
X238700Y9800D01*
X235000Y5000D02*
Y6100D01*
X238700Y9800D02*
X247729D01*
X259583Y21654D02*
Y22441D01*
X83700Y65506D02*
X86761Y62444D01*
X80537Y73063D02*
X83700Y69900D01*
Y65506D02*
Y69900D01*
X86761Y62444D02*
X88751D01*
X85326Y53773D02*
Y58674D01*
X88236Y50563D02*
X88799Y50000D01*
X85326Y53773D02*
X88236Y50863D01*
Y50563D02*
Y50863D01*
X80274Y63726D02*
X85326Y58674D01*
X78650Y73063D02*
X80537D01*
X245987Y5000D02*
X258004Y17017D01*
X245000Y5000D02*
X245987D01*
X258004Y17017D02*
X260017D01*
X183000Y60500D02*
X191000D01*
X170582Y72918D02*
X183000Y60500D01*
X164500Y72918D02*
X170582D01*
X167600Y47500D02*
X174700Y40400D01*
X167600Y47500D02*
Y62500D01*
X173100Y62800D02*
X173300D01*
X170600Y60300D02*
X173100Y62800D01*
X170600Y47300D02*
X175100Y42800D01*
X170600Y47300D02*
Y60300D01*
X179900Y42800D02*
X187100Y35600D01*
Y24800D02*
Y35600D01*
X175100Y42800D02*
X179900D01*
X180000Y40400D02*
X185500Y34900D01*
Y23950D02*
Y34900D01*
X174700Y40400D02*
X180000D01*
X185500Y23950D02*
X195450Y14000D01*
X187100Y24800D02*
X194200Y17700D01*
X198100Y70900D02*
X201800Y67200D01*
X205269D01*
X174500Y77500D02*
Y79700D01*
X177068Y82268D02*
X182500D01*
X174500Y79700D02*
X177068Y82268D01*
X196500Y65500D02*
X199800Y62200D01*
X208732Y66732D02*
X211945D01*
X206500Y64500D02*
X208732Y66732D01*
X94449Y69851D02*
X105090Y59210D01*
X109480D01*
X87132Y67368D02*
X87200Y67300D01*
X87132Y67368D02*
Y69631D01*
X81731Y75032D02*
X87132Y69631D01*
X74937Y87437D02*
X76100Y88600D01*
X79000D01*
X222772Y73543D02*
Y77559D01*
X196107Y36507D02*
X211838D01*
X196000Y36400D02*
X196107Y36507D01*
X211838D02*
X211945Y36614D01*
X260017Y17017D02*
X262929Y19929D01*
Y22441D01*
X117800Y18000D02*
Y21500D01*
X119658Y16142D02*
X124350D01*
X117800Y18000D02*
X119658Y16142D01*
X124350D02*
X155650D01*
X117800Y21500D02*
X120200Y23900D01*
Y55000D01*
X114000Y61200D02*
Y65263D01*
Y61200D02*
X120200Y55000D01*
X32800Y69300D02*
X39799D01*
X30998Y71102D02*
X32800Y69300D01*
X78650Y78969D02*
X82494D01*
X90012Y71451D01*
X103000D01*
X82200Y77000D02*
X89349Y69851D01*
X78650Y77000D02*
X82200D01*
X89349Y69851D02*
X94449D01*
X78650Y75032D02*
X81731D01*
X166500Y22882D02*
Y33099D01*
X189600Y31200D02*
X194225Y26575D01*
X211945D01*
X182500Y23134D02*
Y30057D01*
X200451Y84500D02*
X236900D01*
X251160Y81540D02*
X252602Y80098D01*
X236900Y84500D02*
X239860Y81540D01*
X251160D01*
X252602Y77846D02*
Y80098D01*
Y77846D02*
X252890Y77559D01*
X24764Y71102D02*
X30998D01*
X31700Y87453D02*
X33047Y88800D01*
X30413Y82913D02*
X31700Y84200D01*
Y87453D01*
X41700Y88800D02*
X42000Y88500D01*
X33047Y88800D02*
X41700D01*
X24764Y82913D02*
X30413D01*
X39500Y10000D02*
X41000Y11500D01*
Y13799D01*
X211945Y39961D02*
X212015Y40030D01*
X220830D01*
X220900Y40100D01*
X199563Y14000D02*
X200441Y14878D01*
Y14894D01*
X195450Y14000D02*
X199563D01*
X211945Y53347D02*
X215468D01*
X216621Y54500D01*
X217000D01*
X35573Y10000D02*
X39500D01*
X30455Y15118D02*
X35573Y10000D01*
X24764Y15118D02*
X30455D01*
X32994Y29300D02*
X42401D01*
X42500Y29201D01*
X30623Y26929D02*
X32994Y29300D01*
X24764Y26929D02*
X30623D01*
X158382Y22882D02*
X166500D01*
X155650Y20150D02*
X158382Y22882D01*
X155650Y16142D02*
Y20150D01*
X114000Y65263D02*
X117520Y68783D01*
Y79450D01*
X191000Y60500D02*
X193000Y62500D01*
X164500Y69500D02*
Y72000D01*
Y72918D01*
X193000Y62500D02*
Y74333D01*
X197049Y78382D02*
Y78500D01*
X193000Y74333D02*
X197049Y78382D01*
X161142Y66142D02*
X164500Y69500D01*
X155650Y66142D02*
X161142D01*
X124350D02*
X155650D01*
X123492Y67000D02*
X124350Y66142D01*
X118000Y67000D02*
X123492D01*
X116500Y65500D02*
X118000Y67000D01*
X117099Y62950D02*
X117520D01*
X116500Y63550D02*
X117099Y62950D01*
X116500Y63550D02*
Y65500D01*
X100299Y79799D02*
X103000D01*
X104477Y66690D02*
X109480D01*
X103118Y68049D02*
X104477Y66690D01*
X103000Y68049D02*
X103118D01*
X103000Y74500D02*
X104210Y75710D01*
X109480D01*
X103000Y71451D02*
Y74500D01*
X200451Y78500D02*
Y84500D01*
X197095Y84546D02*
Y86595D01*
X197049Y84500D02*
X197095Y84546D01*
Y86595D02*
X198900Y88400D01*
X234500D01*
X244300Y94300D02*
X245000Y95000D01*
X234500Y88400D02*
X240400Y94300D01*
X244300D01*
X211965Y60020D02*
X216980D01*
X74937Y84650D02*
Y87437D01*
X77226Y63726D02*
X80274D01*
X74937Y66015D02*
X77226Y63726D01*
X74937Y66015D02*
Y69350D01*
X88803Y57004D02*
Y62496D01*
X88799Y57000D02*
X88803Y57004D01*
Y62496D02*
X88807Y62500D01*
X215554Y5554D02*
Y14045D01*
X216109Y14600D01*
X215000Y5000D02*
X215554Y5554D01*
X205000Y5000D02*
X205279Y5280D01*
Y14220D02*
X205559Y14500D01*
X205279Y5280D02*
Y14220D01*
X182500Y82268D02*
X182539D01*
X212098Y56846D02*
X221346D01*
X211945Y56693D02*
X212098Y56846D01*
X221346D02*
X221500Y57000D01*
X211945Y60039D02*
X211965Y60020D01*
X199800Y62200D02*
X207759D01*
X208870Y63311D01*
X211870D02*
X211945Y63386D01*
X208870Y63311D02*
X211870D01*
X205269Y67200D02*
X208148Y70079D01*
X211945D01*
X203500Y69500D02*
X207425Y73425D01*
X211945D01*
X220000Y90000D02*
X225000Y95000D01*
X190272Y90000D02*
X220000D01*
X182539Y82268D02*
X190272Y90000D01*
X182500Y70193D02*
Y79000D01*
X200026Y29500D02*
X203794Y33268D01*
X200000Y29500D02*
X200026D01*
X204079Y29921D02*
X211945D01*
X216693Y43307D02*
X217000Y43000D01*
X211945Y43307D02*
X216693D01*
X203794Y33268D02*
X211945D01*
X246197Y67504D02*
Y77559D01*
X216079Y73543D02*
Y77559D01*
Y22441D02*
Y32496D01*
X249543Y22441D02*
Y32496D01*
X246197Y22441D02*
Y26457D01*
X242850Y22441D02*
Y32496D01*
X239504Y22441D02*
Y26457D01*
X236157Y22441D02*
Y32496D01*
X232811Y22441D02*
Y26457D01*
X229465Y22441D02*
Y32496D01*
X226118Y22441D02*
Y26457D01*
X222772Y22441D02*
Y32496D01*
X219425Y22441D02*
Y26457D01*
Y67504D02*
Y77559D01*
X229465Y73543D02*
Y77559D01*
X226118Y67504D02*
Y77559D01*
X236157Y73543D02*
Y77559D01*
X232811Y67504D02*
Y77559D01*
X239504Y67504D02*
Y77559D01*
X239500Y67500D02*
X239504Y67504D01*
X242850Y73543D02*
Y77559D01*
X249543Y73543D02*
Y77559D01*
X249500Y73500D02*
X249543Y73543D01*
D15*
X182500Y79000D02*
D03*
Y82268D02*
D03*
Y23134D02*
D03*
Y19866D02*
D03*
D16*
X66583Y38055D02*
D03*
Y29000D02*
D03*
Y19945D02*
D03*
D17*
X89417Y29000D02*
D03*
D18*
X71000Y77000D02*
D03*
D19*
X78650Y80937D02*
D03*
Y78969D02*
D03*
Y77000D02*
D03*
Y75032D02*
D03*
Y73063D02*
D03*
X63350D02*
D03*
Y75032D02*
D03*
Y77000D02*
D03*
Y78969D02*
D03*
Y80937D02*
D03*
D20*
X74937Y69350D02*
D03*
X72969D02*
D03*
X71000D02*
D03*
X69032D02*
D03*
X67063D02*
D03*
Y84650D02*
D03*
X69032D02*
D03*
X71000D02*
D03*
X72969D02*
D03*
X74937D02*
D03*
D21*
X239504Y56496D02*
D03*
X233008D02*
D03*
Y50000D02*
D03*
Y43504D02*
D03*
X239504D02*
D03*
X246000D02*
D03*
Y50000D02*
D03*
X239504D02*
D03*
D22*
X267063Y73425D02*
D03*
Y70079D02*
D03*
Y66732D02*
D03*
Y63386D02*
D03*
Y60039D02*
D03*
Y56693D02*
D03*
Y53347D02*
D03*
Y50000D02*
D03*
Y46654D02*
D03*
Y43307D02*
D03*
Y39961D02*
D03*
Y36614D02*
D03*
Y33268D02*
D03*
Y29921D02*
D03*
Y26575D02*
D03*
X211945D02*
D03*
Y29921D02*
D03*
Y33268D02*
D03*
Y36614D02*
D03*
Y39961D02*
D03*
Y43307D02*
D03*
Y46654D02*
D03*
Y50000D02*
D03*
Y53347D02*
D03*
Y56693D02*
D03*
Y60039D02*
D03*
Y63386D02*
D03*
Y66732D02*
D03*
Y70079D02*
D03*
Y73425D02*
D03*
D23*
X262929Y22441D02*
D03*
X259583D02*
D03*
X256236D02*
D03*
X252890D02*
D03*
X249543D02*
D03*
X246197D02*
D03*
X242850D02*
D03*
X239504D02*
D03*
X236157D02*
D03*
X232811D02*
D03*
X229465D02*
D03*
X226118D02*
D03*
X222772D02*
D03*
X219425D02*
D03*
X216079D02*
D03*
Y77559D02*
D03*
X219425D02*
D03*
X222772D02*
D03*
X226118D02*
D03*
X229465D02*
D03*
X232811D02*
D03*
X236157D02*
D03*
X239504D02*
D03*
X242850D02*
D03*
X246197D02*
D03*
X249543D02*
D03*
X252890D02*
D03*
X256236D02*
D03*
X259583D02*
D03*
X262929D02*
D03*
D24*
X211945Y22441D02*
D03*
X267063D02*
D03*
X211945Y77559D02*
D03*
X267063D02*
D03*
D25*
X124350Y83858D02*
D03*
X155650D02*
D03*
X124350Y66142D02*
D03*
X155650D02*
D03*
X124350Y33858D02*
D03*
X155650D02*
D03*
X124350Y16142D02*
D03*
X155650D02*
D03*
D26*
X191500Y44100D02*
D03*
X196618D02*
D03*
X191482Y53000D02*
D03*
X196600D02*
D03*
X191500Y44100D02*
D03*
X186382D02*
D03*
X191482Y53000D02*
D03*
X186364D02*
D03*
X210841Y14500D02*
D03*
X215959D02*
D03*
X200441D02*
D03*
X205559D02*
D03*
X77436Y48600D02*
D03*
X72318D02*
D03*
X67200D02*
D03*
X72318D02*
D03*
X93559Y86500D02*
D03*
X88441D02*
D03*
D27*
X166500Y33099D02*
D03*
Y36501D02*
D03*
X103000Y68049D02*
D03*
Y71451D02*
D03*
Y83201D02*
D03*
Y79799D02*
D03*
X42500Y25799D02*
D03*
Y29201D02*
D03*
X41000Y17701D02*
D03*
Y14299D02*
D03*
X42000Y85098D02*
D03*
Y88500D02*
D03*
X182500Y70193D02*
D03*
Y66807D02*
D03*
Y30057D02*
D03*
Y33443D02*
D03*
D28*
X200451Y78500D02*
D03*
X197049D02*
D03*
X200451Y84500D02*
D03*
X197049D02*
D03*
X43201Y69300D02*
D03*
X39799D02*
D03*
X53701Y73800D02*
D03*
X50299D02*
D03*
X53701Y78800D02*
D03*
X50299D02*
D03*
X88799Y50000D02*
D03*
X92201D02*
D03*
Y57000D02*
D03*
X88799D02*
D03*
X88807Y62500D02*
D03*
X92193D02*
D03*
D29*
X58000Y60809D02*
D03*
Y55691D02*
D03*
D30*
X109480Y66690D02*
D03*
Y59210D02*
D03*
X117520Y62950D02*
D03*
X109480Y83190D02*
D03*
Y75710D02*
D03*
X117520Y79450D02*
D03*
D31*
X24764Y28898D02*
D03*
Y15118D02*
D03*
Y17087D02*
D03*
Y26929D02*
D03*
Y24961D02*
D03*
Y19055D02*
D03*
Y21024D02*
D03*
Y22992D02*
D03*
Y84882D02*
D03*
Y71102D02*
D03*
Y73071D02*
D03*
Y82913D02*
D03*
Y80945D02*
D03*
Y75039D02*
D03*
Y77008D02*
D03*
Y78976D02*
D03*
D32*
Y34606D02*
D03*
Y31457D02*
D03*
Y12559D02*
D03*
Y9409D02*
D03*
Y90591D02*
D03*
Y87441D02*
D03*
Y68543D02*
D03*
Y65394D02*
D03*
D33*
X34500Y19100D02*
D03*
Y16600D02*
D03*
Y24750D02*
D03*
Y27250D02*
D03*
Y75000D02*
D03*
Y72500D02*
D03*
X34000Y80750D02*
D03*
Y83250D02*
D03*
D34*
X36150Y37000D02*
D03*
X33650D02*
D03*
X35850Y62000D02*
D03*
X33350D02*
D03*
D35*
X164500Y76382D02*
D03*
Y72918D02*
D03*
X166500Y19418D02*
D03*
Y22882D02*
D03*
X56000Y34268D02*
D03*
Y37732D02*
D03*
X51500Y23882D02*
D03*
Y20418D02*
D03*
X58000Y23882D02*
D03*
Y20418D02*
D03*
X64000Y56618D02*
D03*
Y60082D02*
D03*
D36*
X257932Y85800D02*
D03*
X254468D02*
D03*
X265932D02*
D03*
X262468D02*
D03*
X46732Y37000D02*
D03*
X43268D02*
D03*
X51918Y86000D02*
D03*
X55382D02*
D03*
X91332Y79400D02*
D03*
X87868D02*
D03*
X57232Y67500D02*
D03*
X53768D02*
D03*
X75732Y54500D02*
D03*
X72268D02*
D03*
X76232Y60500D02*
D03*
X72768D02*
D03*
X259535Y14500D02*
D03*
X263000D02*
D03*
X244268Y85500D02*
D03*
X247732D02*
D03*
X47632Y61700D02*
D03*
X44168D02*
D03*
D52*
X141500Y50000D02*
D03*
X136500D02*
D03*
X37500Y55000D02*
D03*
Y50000D02*
D03*
Y45000D02*
D03*
D55*
X265000Y5000D02*
D03*
Y95000D02*
D03*
D56*
X35000Y5000D02*
D03*
X45000D02*
D03*
X55000D02*
D03*
X65000D02*
D03*
X75000D02*
D03*
X85000D02*
D03*
X95000D02*
D03*
X105000D02*
D03*
X115000D02*
D03*
X125000D02*
D03*
X135000D02*
D03*
X145000D02*
D03*
X155000D02*
D03*
X165000D02*
D03*
X175000D02*
D03*
X185000D02*
D03*
X195000D02*
D03*
X205000D02*
D03*
X215000D02*
D03*
X225000D02*
D03*
X235000D02*
D03*
X245000D02*
D03*
X255000D02*
D03*
X35000Y95000D02*
D03*
X45000D02*
D03*
X55000D02*
D03*
X65000D02*
D03*
X75000D02*
D03*
X85000D02*
D03*
X95000D02*
D03*
X105000D02*
D03*
X115000D02*
D03*
X125000D02*
D03*
X135000D02*
D03*
X145000D02*
D03*
X155000D02*
D03*
X165000D02*
D03*
X175000D02*
D03*
X185000D02*
D03*
X195000D02*
D03*
X205000D02*
D03*
X215000D02*
D03*
X225000D02*
D03*
X235000D02*
D03*
X245000D02*
D03*
X255000D02*
D03*
D57*
X246000Y56496D02*
D03*
D58*
X89300Y75744D02*
X90822Y77266D01*
X89300Y75500D02*
Y75744D01*
X90822Y78890D02*
X91332Y79400D01*
X90822Y77266D02*
Y78890D01*
X94059Y87000D02*
X97000D01*
X93559Y86500D02*
X94059Y87000D01*
X88941Y86500D02*
Y87000D01*
X83000Y85500D02*
X83172Y85672D01*
X88441Y86300D02*
Y86500D01*
X83172Y85672D02*
X87813D01*
X88441Y86300D01*
X87868Y80990D02*
Y85033D01*
Y79400D02*
Y80990D01*
X84490D02*
X87868D01*
X47600Y69100D02*
X47716Y68984D01*
Y62367D02*
Y68984D01*
X47632Y62283D02*
X47716Y62367D01*
X47632Y61700D02*
Y62283D01*
X94411Y54672D02*
X96628D01*
X92201Y56882D02*
Y57000D01*
Y56882D02*
X94411Y54672D01*
X96628D02*
X96800Y54500D01*
X64100Y51300D02*
X64200Y51200D01*
X64000Y56618D02*
X64100Y56518D01*
Y51300D02*
Y56518D01*
X75732Y54500D02*
X76142D01*
X76242Y54600D01*
X79756D01*
X81757Y56600D01*
X82000D01*
X76232Y60500D02*
X76560Y60172D01*
X80228D01*
X80400Y60000D01*
X158061Y76382D02*
X164500D01*
X156843Y77600D02*
X158061Y76382D01*
X156600Y77600D02*
X156843D01*
X182500Y16200D02*
Y19866D01*
X180200Y13900D02*
X182500Y16200D01*
X173100Y13900D02*
X180200D01*
X170056Y10900D02*
X170300D01*
X166500Y14200D02*
X167561Y13139D01*
X167817D02*
X170056Y10900D01*
X167561Y13139D02*
X167817D01*
X166500Y14200D02*
Y19418D01*
X72268Y54500D02*
Y60000D01*
X72768Y60500D01*
X46732Y37000D02*
X46766Y36966D01*
Y32934D02*
Y36966D01*
Y32934D02*
X46800Y32900D01*
X99700Y50800D02*
Y59700D01*
X96369Y47469D02*
X97050Y48150D01*
X97056D02*
X98550Y49644D01*
Y49650D01*
X87669Y47469D02*
X96369D01*
X98550Y49650D02*
X99700Y50800D01*
X97050Y48150D02*
X97056D01*
X96900Y62500D02*
X99700Y59700D01*
X95056Y50000D02*
X95757Y50700D01*
X96000D01*
X92201Y50000D02*
X95056D01*
X56800Y45100D02*
X85300D01*
X87669Y47469D01*
X33650Y37000D02*
Y40507D01*
X31900Y42257D02*
X33650Y40507D01*
X31900Y42257D02*
Y42500D01*
X53768Y67500D02*
X54000Y67268D01*
Y59100D02*
Y67268D01*
X248242Y87999D02*
X249500Y89257D01*
Y89500D01*
X248242Y84833D02*
Y87999D01*
X256199Y77596D02*
Y81043D01*
X250567Y84833D02*
X253479Y81921D01*
X255320D01*
X256199Y81043D01*
X248242Y84833D02*
X250567D01*
X254534Y89634D02*
X254600Y89700D01*
X254534Y85866D02*
Y89634D01*
X254468Y85800D02*
X254534Y85866D01*
X256199Y77596D02*
X256236Y77559D01*
X259627Y82172D02*
Y83948D01*
X257932Y85642D02*
Y85800D01*
Y85642D02*
X259627Y83948D01*
Y82172D02*
X259799Y82000D01*
X257422Y86310D02*
X257932Y85800D01*
X259799Y82000D02*
X263000D01*
X265466Y86266D02*
Y94534D01*
Y86266D02*
X265932Y85800D01*
X265000Y95000D02*
X265466Y94534D01*
X244268Y88724D02*
X245300Y89757D01*
Y90000D01*
X244268Y85500D02*
Y88724D01*
X44300Y17700D02*
X44300Y17700D01*
X41000Y17701D02*
X41000Y17700D01*
X44300D01*
X54000Y59100D02*
X54197D01*
X57606Y55691D01*
X53734Y67466D02*
X54278Y68010D01*
X34000Y83250D02*
X34200D01*
X57606Y55691D02*
X58000D01*
X60144Y50000D02*
X61544Y48600D01*
X59900Y50000D02*
X60144D01*
X61544Y48600D02*
X67200D01*
X37500Y55000D02*
X46900D01*
X56800Y45100D01*
X82450Y48650D02*
X82500Y48700D01*
X77436Y48600D02*
X77486Y48650D01*
X82450D01*
X72293Y48625D02*
Y54475D01*
X72268Y54500D02*
X72293Y54475D01*
Y48625D02*
X72318Y48600D01*
X68379Y60500D02*
X72768D01*
X67000Y61879D02*
X68379Y60500D01*
X92193Y62500D02*
X96900D01*
X24764Y65394D02*
X25866D01*
X43969Y81531D02*
Y83247D01*
X42118Y85098D02*
X43969Y83247D01*
X41500Y73000D02*
X43201Y71299D01*
Y69000D02*
Y71299D01*
X45099Y25799D02*
X46800Y27500D01*
X47000D01*
X42500Y25799D02*
X45099D01*
X48833Y85333D02*
X51408D01*
X47500Y84000D02*
X48833Y85333D01*
X51918Y85843D02*
Y86000D01*
X51408Y85333D02*
X51918Y85843D01*
X55382Y86000D02*
Y94618D01*
X55000Y95000D02*
X55382Y94618D01*
X60000Y67500D02*
X61500Y66000D01*
X57232Y67500D02*
X60000D01*
X54278Y68010D02*
Y68947D01*
X58393Y73063D01*
X60063D01*
X67000Y61879D02*
Y64000D01*
X69000Y66000D01*
X267000Y17500D02*
X267063Y17563D01*
X255543Y10350D02*
X259535Y14343D01*
Y14500D01*
X255000Y5000D02*
X255543Y5543D01*
Y10350D01*
X262929Y77559D02*
Y81929D01*
X263000Y82000D02*
X266000D01*
X262929Y81929D02*
X263000Y82000D01*
X267063Y77559D02*
X267495Y77991D01*
Y80505D01*
X266000Y82000D02*
X267495Y80505D01*
X265000Y93728D02*
Y95000D01*
X259583Y73543D02*
Y77559D01*
X263047Y73425D02*
X267063D01*
X263047Y70079D02*
X267063D01*
X263047Y66732D02*
X267063D01*
X263047Y63386D02*
X267063D01*
X263047Y60039D02*
X267063D01*
X263047Y56693D02*
X267063D01*
X263047Y53347D02*
X267063D01*
X263047Y50000D02*
X267063D01*
X263047Y46654D02*
X267063D01*
X263047Y43307D02*
X267063D01*
X263047Y39961D02*
X267063D01*
X263047Y36614D02*
X267063D01*
X263047Y33268D02*
X267063D01*
X263047Y29921D02*
X267063D01*
X263047Y26575D02*
X267063D01*
X256236Y22441D02*
Y26457D01*
X252890Y22441D02*
Y26457D01*
D59*
X124350Y78308D02*
X126000Y76659D01*
Y76600D02*
Y76659D01*
X124350Y78308D02*
Y83858D01*
X188402Y64500D02*
X188500D01*
X186158Y66744D02*
X188402Y64500D01*
X182563Y66744D02*
X186158D01*
X182500Y66807D02*
X182563Y66744D01*
X37457Y31457D02*
X39500Y33500D01*
X227502Y50002D02*
X233006D01*
X173899Y36501D02*
X176900Y33500D01*
X166500Y36501D02*
X173899D01*
X176928Y33472D02*
X182472D01*
X182500Y33443D01*
X176900Y33500D02*
X176928Y33472D01*
X144400Y33800D02*
X144458Y33858D01*
X155650D01*
X256000Y95000D02*
X262208Y88792D01*
X255000Y95000D02*
X256000D01*
X262208Y86060D02*
Y88792D01*
Y86060D02*
X262468Y85800D01*
X60000Y29000D02*
X66583D01*
X56000D02*
X60000D01*
X40400Y58495D02*
Y61850D01*
X37992Y66300D02*
X40400Y63892D01*
Y61850D02*
Y63892D01*
X37500Y55595D02*
X40400Y58495D01*
X37500Y55000D02*
Y55595D01*
X20441Y68543D02*
X24764D01*
X32000Y66300D02*
X37992D01*
X24764Y68543D02*
X29757D01*
X32000Y66300D01*
X18000Y85000D02*
X20441Y87441D01*
X18000Y70984D02*
X20441Y68543D01*
X18000Y70984D02*
Y85000D01*
X17000Y28328D02*
X20128Y31457D01*
X17000Y16000D02*
Y28328D01*
Y16000D02*
X20441Y12559D01*
Y87441D02*
X24764D01*
Y90591D02*
X24809Y90545D01*
X30955D02*
X31000Y90500D01*
X24809Y90545D02*
X30955D01*
X28424Y61076D02*
Y62836D01*
X25866Y65394D02*
X28424Y62836D01*
Y61076D02*
X28500Y61000D01*
X227504Y50000D02*
X227504D01*
X227450Y56500D02*
X227500D01*
X227502Y56498D02*
X233006D01*
X233008Y56496D01*
X227500Y56500D02*
X227502Y56498D01*
X124050Y33858D02*
X124350D01*
X122500Y32308D02*
X124050Y33858D01*
X124350D02*
Y39150D01*
X24764Y31457D02*
X37457D01*
X39500Y33500D02*
Y36616D01*
X20128Y31457D02*
X24764D01*
X20441Y12559D02*
X24764D01*
Y34606D02*
X24925Y34768D01*
X26028D02*
X29423Y38164D01*
Y39423D02*
X29500Y39500D01*
X24925Y34768D02*
X26028D01*
X29423Y38164D02*
Y39423D01*
X24764Y9409D02*
X29091D01*
X30500Y8000D01*
X51500Y20418D02*
X58000D01*
X51500Y15000D02*
Y20418D01*
X58394Y20181D02*
X66346D01*
X66583Y19945D01*
X51500Y29000D02*
X56000D01*
Y34268D01*
X51500Y23882D02*
Y29000D01*
X58000Y23882D02*
Y27892D01*
X89417Y29000D02*
X92417Y32000D01*
X97000D01*
X122500Y41000D02*
X124350Y39150D01*
X138000Y87500D02*
X141642Y83858D01*
X155650D01*
X204000Y74000D02*
Y74108D01*
X204576Y74685D02*
Y74765D01*
X204000Y74108D02*
X204576Y74685D01*
Y74765D02*
X207370Y77559D01*
X211945D01*
X205500Y22500D02*
X205559Y22441D01*
X211945D01*
X267063Y17563D02*
Y22441D01*
X265000Y5000D02*
Y12342D01*
X263000Y14343D02*
X265000Y12342D01*
X263000Y14343D02*
Y14500D01*
X246000Y56496D02*
X251504D01*
X239504D02*
Y62000D01*
X246000Y50000D02*
X251504D01*
X246000Y43504D02*
X251504D01*
X239504Y38000D02*
Y43504D01*
X227504D02*
X233008D01*
D60*
X54459Y77241D02*
Y78042D01*
Y77241D02*
X54983Y76717D01*
X53701Y78800D02*
X54459Y78042D01*
X54983Y76717D02*
X60317D01*
X97516Y12800D02*
X107350Y22634D01*
X69900Y10500D02*
X72200Y12800D01*
X71303Y9919D02*
X72781Y11397D01*
X98097D02*
X111900Y25200D01*
X72200Y12800D02*
X97516D01*
X72781Y11397D02*
X98097D01*
X71303Y8697D02*
Y9919D01*
X69900Y8400D02*
Y10500D01*
X66500Y5000D02*
X69900Y8400D01*
X71303Y8697D02*
X75000Y5000D01*
X107350Y22634D02*
Y24950D01*
X107600Y25200D01*
X21361Y78976D02*
X24764D01*
X20600Y75800D02*
X21361Y75039D01*
X24764D01*
X20600Y78216D02*
X21361Y78976D01*
X20600Y75800D02*
Y78216D01*
X33825Y75000D02*
Y75020D01*
X27999Y19086D02*
Y22563D01*
X27553Y23010D02*
X27999Y22563D01*
X24781Y23010D02*
X27553D01*
X24764Y22992D02*
X24781Y23010D01*
X24786Y19078D02*
X34478D01*
X33825Y75020D02*
Y76350D01*
Y75020D02*
X34480D01*
X24783D02*
X33825D01*
X34480D02*
X34500Y75000D01*
X24764Y75039D02*
X24783Y75020D01*
X32226Y77949D02*
X33825Y76350D01*
X28000Y80847D02*
X33903D01*
X24861D02*
X28000D01*
Y77500D02*
Y80847D01*
X27500Y77000D02*
X28000Y77500D01*
X24764Y77008D02*
X24772Y77000D01*
X27500D01*
X34000Y80750D02*
X34001Y80749D01*
X33903Y80847D02*
X34000Y80750D01*
X24764Y80945D02*
X24861Y80847D01*
X20400Y21784D02*
Y24200D01*
Y21784D02*
X21161Y21024D01*
X24764D01*
X21161Y24961D02*
X24764D01*
X20400Y24200D02*
X21161Y24961D01*
X34001Y79399D02*
X35600Y77800D01*
X34001Y79399D02*
Y80749D01*
X35600Y77800D02*
X35900D01*
X46500Y73800D02*
X50299D01*
X46300Y79000D02*
X50099D01*
X50299Y78800D01*
X55215Y75314D02*
X60386D01*
X60800Y74900D01*
X63218D01*
X63350Y75032D01*
X60317Y76717D02*
X60600Y77000D01*
X63350D01*
X63152Y76802D02*
X63350Y77000D01*
X54580Y74680D02*
X55215Y75314D01*
X53701Y73800D02*
Y73918D01*
X54462Y74680D01*
X54580D01*
X63152Y75230D02*
X63350Y75032D01*
X24869Y24855D02*
X34395D01*
X34500Y24750D01*
X24764Y24961D02*
X24869Y24855D01*
X24764Y19055D02*
X24786Y19078D01*
X34478D02*
X34500Y19100D01*
X35297Y21297D02*
X44403D01*
X34500Y20500D02*
X35297Y21297D01*
X34500Y19100D02*
Y20500D01*
X35300Y22700D02*
X44300D01*
X34500Y24750D02*
X34601Y24649D01*
Y23399D02*
Y24649D01*
Y23399D02*
X35300Y22700D01*
X44403Y21297D02*
X45275Y20425D01*
X44300Y22700D02*
X45225Y23625D01*
X47300D01*
X45275Y20425D02*
X47300D01*
X181704Y45300D02*
X182904Y44100D01*
X186382D01*
X182886Y53000D02*
X186364D01*
X181686Y51800D02*
X182886Y53000D01*
X181200Y51800D02*
X181686D01*
X208225Y47400D02*
X208972Y46654D01*
X209609D02*
X211945D01*
X207775Y48803D02*
X208972Y50000D01*
X191500Y46625D02*
X192275Y47400D01*
X208972Y46654D02*
X209609D01*
X192275Y47400D02*
X208225D01*
X192725Y48803D02*
X207775D01*
X191482Y50046D02*
X192725Y48803D01*
X65000Y5000D02*
X66500D01*
X196718Y44000D02*
X201118D01*
X196600Y53000D02*
X201000D01*
X191482Y50046D02*
Y53000D01*
X196618Y44100D02*
X196718Y44000D01*
X208972Y50000D02*
X211945D01*
X191500Y44100D02*
Y46625D01*
D61*
X39116Y37000D02*
X39500Y36616D01*
X36150Y37000D02*
X39116D01*
X53565Y37935D02*
X55797D01*
X41608Y49892D02*
X53565Y37935D01*
X37608Y49892D02*
X41608D01*
X37500Y50000D02*
X37608Y49892D01*
X55797Y37935D02*
X56000Y37732D01*
X66260D01*
X161525Y35000D02*
X163426Y33099D01*
X161200Y35000D02*
X161525D01*
X163426Y33099D02*
X166500D01*
X34000Y83450D02*
X34200Y83250D01*
X66260Y37732D02*
X66583Y38055D01*
X35850Y62000D02*
X36000Y61850D01*
X40400D02*
X44018D01*
X36000D02*
X40400D01*
X44018D02*
X44168Y61700D01*
X29850Y58000D02*
Y58100D01*
X33350Y61600D02*
Y62000D01*
X29850Y58100D02*
X33350Y61600D01*
X37000Y72500D02*
X37770Y73270D01*
Y74770D01*
X38000Y75000D01*
X34500Y72500D02*
X37000D01*
X34000Y83450D02*
Y86500D01*
X34200Y83250D02*
X34400D01*
X43969Y81531D02*
X44000Y81500D01*
X42000Y85098D02*
X42118D01*
X34625Y27125D02*
X38375D01*
X34500Y27250D02*
X34625Y27125D01*
X38375D02*
X38500Y27000D01*
X39884Y37000D02*
X43268D01*
X43113Y37155D02*
Y39483D01*
X37596Y45000D02*
X43113Y39483D01*
Y37155D02*
X43268Y37000D01*
X36900Y13100D02*
Y15000D01*
X35100Y16400D02*
X35500D01*
X36900Y15000D01*
X34900Y16600D02*
X35100Y16400D01*
D62*
X78650Y80937D02*
X84437D01*
X71000Y84650D02*
Y89000D01*
X60063Y73063D02*
X63350D01*
X58363Y60446D02*
X63637D01*
X58000Y60809D02*
X58363Y60446D01*
X63637D02*
X64000Y60082D01*
Y63617D01*
X67062Y66680D02*
Y69349D01*
X67063Y69350D01*
X64000Y63617D02*
X67062Y66680D01*
X69032Y66031D02*
Y69350D01*
X69000Y66000D02*
X69032Y66031D01*
X69031Y69349D02*
X69032Y69350D01*
X71000Y64000D02*
Y69350D01*
D63*
X153001Y50000D02*
X166500Y36501D01*
X141500Y50000D02*
X153001D01*
D64*
X6752Y39016D02*
D03*
Y5000D02*
D03*
Y95000D02*
D03*
Y60984D02*
D03*
D65*
X22500Y39016D02*
D03*
Y5000D02*
D03*
Y95000D02*
D03*
Y60984D02*
D03*
D66*
X89300Y75500D02*
D03*
X126000Y76600D02*
D03*
X97000Y87000D02*
D03*
X83000Y85500D02*
D03*
X167600Y62500D02*
D03*
X173300Y62800D02*
D03*
X47600Y69100D02*
D03*
X54000Y59100D02*
D03*
X96800Y54500D02*
D03*
X96000Y50700D02*
D03*
X64200Y51200D02*
D03*
X82000Y56600D02*
D03*
X80400Y60000D02*
D03*
X198100Y70900D02*
D03*
X156600Y77600D02*
D03*
X174500Y77500D02*
D03*
X188500Y64500D02*
D03*
X196500Y65500D02*
D03*
X170300Y10900D02*
D03*
X173100Y13900D02*
D03*
X219425Y26457D02*
D03*
X206500Y64500D02*
D03*
X87200Y67300D02*
D03*
X79000Y88600D02*
D03*
X222772Y73543D02*
D03*
X196000Y36400D02*
D03*
X46800Y32900D02*
D03*
X107600Y25200D02*
D03*
X111900D02*
D03*
X48000Y15000D02*
D03*
X249500Y89500D02*
D03*
X254600Y89700D02*
D03*
X161200Y35000D02*
D03*
X176900Y33500D02*
D03*
X189600Y31200D02*
D03*
X144400Y33800D02*
D03*
X245300Y90000D02*
D03*
X98700Y74100D02*
D03*
X98500Y65800D02*
D03*
X44300Y17700D02*
D03*
X71000Y64000D02*
D03*
X59900Y50000D02*
D03*
X82500Y48700D02*
D03*
X38000Y75000D02*
D03*
X34000Y86500D02*
D03*
X31000Y90500D02*
D03*
X28500Y61000D02*
D03*
X29850Y58000D02*
D03*
X44000Y81500D02*
D03*
X41500Y73000D02*
D03*
X31926Y77949D02*
D03*
X35900Y77800D02*
D03*
X46300Y73800D02*
D03*
Y79000D02*
D03*
X177600Y53200D02*
D03*
X177500Y45700D02*
D03*
X47300Y23625D02*
D03*
Y20425D02*
D03*
X38500Y27000D02*
D03*
X181218Y45300D02*
D03*
X181200Y51800D02*
D03*
X204500Y44100D02*
D03*
Y53000D02*
D03*
X220900Y40100D02*
D03*
X104100Y23500D02*
D03*
X111800Y21800D02*
D03*
X201118Y44000D02*
D03*
X201000Y53000D02*
D03*
X217000Y54500D02*
D03*
X31900Y42500D02*
D03*
X29500Y39500D02*
D03*
X47000Y27500D02*
D03*
X36900Y13100D02*
D03*
X30500Y8000D02*
D03*
X51500Y15000D02*
D03*
X58500D02*
D03*
X60000Y29000D02*
D03*
X56000D02*
D03*
X51500D02*
D03*
X97000Y32000D02*
D03*
X109000Y42000D02*
D03*
X97500D02*
D03*
X105000D02*
D03*
X113000D02*
D03*
X101500D02*
D03*
X109000Y37000D02*
D03*
X97500D02*
D03*
X105000D02*
D03*
X113000D02*
D03*
X101500D02*
D03*
Y32000D02*
D03*
X113000D02*
D03*
X105000D02*
D03*
X109000D02*
D03*
X122500Y41000D02*
D03*
X216980Y60020D02*
D03*
X73000Y75000D02*
D03*
X69000D02*
D03*
X73000Y79000D02*
D03*
X69000D02*
D03*
X71000Y89000D02*
D03*
X47500Y84000D02*
D03*
X61500Y66000D02*
D03*
X138000Y87500D02*
D03*
X221500Y57000D02*
D03*
X203500Y69500D02*
D03*
X204000Y74000D02*
D03*
X200000Y29500D02*
D03*
X204079Y29921D02*
D03*
X216846Y43154D02*
D03*
X205559Y22441D02*
D03*
X267000Y17500D02*
D03*
X259799Y82000D02*
D03*
X242700Y53200D02*
D03*
Y46800D02*
D03*
X236300D02*
D03*
Y53200D02*
D03*
X251508Y56492D02*
D03*
X239508Y62004D02*
D03*
X251508Y49996D02*
D03*
Y43500D02*
D03*
X239500Y37996D02*
D03*
X227500Y43508D02*
D03*
Y50004D02*
D03*
Y56500D02*
D03*
X259583Y73543D02*
D03*
X263047Y73425D02*
D03*
Y70079D02*
D03*
Y66732D02*
D03*
Y63386D02*
D03*
Y60039D02*
D03*
Y56693D02*
D03*
Y53347D02*
D03*
Y50000D02*
D03*
Y46654D02*
D03*
Y43307D02*
D03*
Y39961D02*
D03*
Y36614D02*
D03*
Y33268D02*
D03*
Y29921D02*
D03*
Y26575D02*
D03*
X246193Y67500D02*
D03*
X256236Y26457D02*
D03*
X252890D02*
D03*
X216079Y73543D02*
D03*
X216083Y32500D02*
D03*
X249547D02*
D03*
X246197Y26457D02*
D03*
X242854Y32500D02*
D03*
X239504Y26457D02*
D03*
X236161Y32500D02*
D03*
X232811Y26457D02*
D03*
X229468Y32500D02*
D03*
X226118Y26457D02*
D03*
X222776Y32500D02*
D03*
X219421Y67500D02*
D03*
X229465Y73543D02*
D03*
X226114Y67500D02*
D03*
X236157Y73543D02*
D03*
X232807Y67500D02*
D03*
X239500D02*
D03*
X242850Y73543D02*
D03*
X249543D02*
D03*
M02*
