G04*
G04 #@! TF.GenerationSoftware,Altium Limited,Altium Designer,24.5.2 (23)*
G04*
G04 Layer_Color=65535*
%FSLAX25Y25*%
%MOIN*%
G70*
G04*
G04 #@! TF.SameCoordinates,691D43E0-75DC-4999-8F72-E41A8CCF96D7*
G04*
G04*
G04 #@! TF.FilePolarity,Positive*
G04*
G01*
G75*
%ADD10C,0.00787*%
%ADD11C,0.00600*%
%ADD12C,0.00500*%
%ADD13C,0.00300*%
%ADD14R,0.05600X0.01500*%
G36*
X60550Y72313D02*
Y73813D01*
X59550D01*
Y72313D01*
X60550D01*
D02*
G37*
G36*
X81450Y80187D02*
Y81687D01*
X82450D01*
Y80187D01*
X81450D01*
D02*
G37*
D10*
X60283Y38055D02*
G03*
X60283Y38055I-394J0D01*
G01*
X108194Y70350D02*
G03*
X108194Y70350I-394J0D01*
G01*
Y86850D02*
G03*
X108194Y86850I-394J0D01*
G01*
D11*
X185000Y76634D02*
Y84634D01*
X180000Y76634D02*
X185000D01*
X180000D02*
Y84634D01*
X185000D01*
X84890Y36913D02*
Y41795D01*
X71110D02*
X84890D01*
Y16205D02*
Y21087D01*
X71110Y16205D02*
X84890D01*
X76747Y68650D02*
X79350D01*
X62650D02*
Y71253D01*
Y85350D02*
X65253D01*
X76747D02*
X79350D01*
Y68650D02*
Y71253D01*
X62650Y68650D02*
X65253D01*
X62650Y82747D02*
Y85350D01*
X79350Y82747D02*
Y85350D01*
X152300Y69967D02*
Y80033D01*
X128360Y62700D02*
X151640D01*
X127700Y69967D02*
Y80033D01*
X128360Y87300D02*
X151640D01*
X152300Y19967D02*
Y30033D01*
X128360Y12700D02*
X151640D01*
X127700Y19967D02*
Y30033D01*
X128360Y37300D02*
X151640D01*
X188759Y47000D02*
X199059D01*
Y41200D02*
Y47000D01*
X188759Y41200D02*
X199059D01*
X188759D02*
Y47000D01*
X188741Y55900D02*
X199041D01*
Y50100D02*
Y55900D01*
X188741Y50100D02*
X199041D01*
X188741D02*
Y55900D01*
X183941Y41200D02*
X194241D01*
X183941D02*
Y47000D01*
X194241D01*
Y41200D02*
Y47000D01*
X183923Y50100D02*
X194223D01*
X183923D02*
Y55900D01*
X194223D01*
Y50100D02*
Y55900D01*
X164335Y31060D02*
Y38540D01*
X168665D01*
Y31060D02*
Y38540D01*
X164335Y31060D02*
X168665D01*
X194750Y81000D02*
X202750D01*
Y76000D02*
Y81000D01*
X194750Y76000D02*
X202750D01*
X194750D02*
Y81000D01*
Y87000D02*
X202750D01*
Y82000D02*
Y87000D01*
X194750Y82000D02*
X202750D01*
X194750D02*
Y87000D01*
X208100Y17400D02*
X218400D01*
Y11600D02*
Y17400D01*
X208100Y11600D02*
X218400D01*
X208100D02*
Y17400D01*
X100835Y66010D02*
Y73490D01*
X105165D01*
Y66010D02*
Y73490D01*
X100835Y66010D02*
X105165D01*
X197700Y17400D02*
X208000D01*
Y11600D02*
Y17400D01*
X197700Y11600D02*
X208000D01*
X197700D02*
Y17400D01*
X105165Y77760D02*
Y85240D01*
X100835Y77760D02*
X105165D01*
X100835D02*
Y85240D01*
X105165D01*
X40000Y23500D02*
Y31500D01*
X45000D01*
Y23500D02*
Y31500D01*
X40000Y23500D02*
X45000D01*
X43500Y12000D02*
Y20000D01*
X38500Y12000D02*
X43500D01*
X38500D02*
Y20000D01*
X43500D01*
X39500Y82799D02*
Y90799D01*
X44500D01*
Y82799D02*
Y90799D01*
X39500Y82799D02*
X44500D01*
X37500Y66800D02*
X45500D01*
X37500D02*
Y71800D01*
X45500D01*
Y66800D02*
Y71800D01*
X60900Y53250D02*
Y63550D01*
X55100Y53250D02*
X60900D01*
X55100D02*
Y63550D01*
X60900D01*
X48000Y76300D02*
X56000D01*
Y71300D02*
Y76300D01*
X48000Y71300D02*
X56000D01*
X48000D02*
Y76300D01*
X69877Y45700D02*
X80177D01*
X69877D02*
Y51500D01*
X80177D01*
Y45700D02*
Y51500D01*
X48000Y81300D02*
X56000D01*
Y76300D02*
Y81300D01*
X48000Y76300D02*
X56000D01*
X48000D02*
Y81300D01*
X86760Y52165D02*
X94240D01*
Y47835D02*
Y52165D01*
X86760Y47835D02*
X94240D01*
X86760D02*
Y52165D01*
X64459Y51500D02*
X74759D01*
Y45700D02*
Y51500D01*
X64459Y45700D02*
X74759D01*
X64459D02*
Y51500D01*
X180335Y72240D02*
X184665D01*
X180335Y64760D02*
Y72240D01*
Y64760D02*
X184665D01*
Y72240D01*
X180335Y28010D02*
X184665D01*
Y35490D01*
X180335D02*
X184665D01*
X180335Y28010D02*
Y35490D01*
X86000Y83600D02*
X96300D01*
X86000D02*
Y89400D01*
X96300D01*
Y83600D02*
Y89400D01*
X86760Y54835D02*
X94240D01*
X86760D02*
Y59165D01*
X94240D01*
Y54835D02*
Y59165D01*
X86760Y64665D02*
X94240D01*
Y60335D02*
Y64665D01*
X86760Y60335D02*
X94240D01*
X86760D02*
Y64665D01*
X116750Y65360D02*
Y69350D01*
X110250Y61620D02*
Y64280D01*
Y56550D02*
X116750D01*
Y60540D01*
X110250Y69350D02*
X116750D01*
Y81860D02*
Y85850D01*
X110250Y78120D02*
Y80780D01*
Y73050D02*
X116750D01*
Y77040D01*
X110250Y85850D02*
X116750D01*
X133000Y44750D02*
X145400D01*
X133000D02*
Y55250D01*
X145400D01*
Y44750D02*
Y55250D01*
X39608Y42000D02*
X42250D01*
Y58000D01*
X39608D02*
X42250D01*
X32750Y42000D02*
Y58000D01*
Y42000D02*
X35392D01*
X32750Y58000D02*
X35392D01*
X12342Y40197D02*
X17697D01*
X12342Y3819D02*
X17697D01*
X-2106D02*
X1161D01*
X-2106D02*
Y40197D01*
X1161D01*
X12342Y96181D02*
X17697D01*
X12342Y59803D02*
X17697D01*
X-2106D02*
X1161D01*
X-2106D02*
Y96181D01*
X1161D01*
X31500Y14350D02*
X37000D01*
Y21350D01*
X31500D02*
X37000D01*
X31500Y14350D02*
Y21350D01*
X32000Y29500D02*
X37500D01*
X32000Y22500D02*
Y29500D01*
Y22500D02*
X37500D01*
Y29500D01*
X31400Y34500D02*
Y40000D01*
Y34500D02*
X38400D01*
Y40000D01*
X31400D02*
X38400D01*
X31500Y70250D02*
X37000D01*
Y77250D01*
X31500D02*
X37000D01*
X31500Y70250D02*
Y77250D01*
Y85500D02*
X37000D01*
X31500Y78500D02*
Y85500D01*
Y78500D02*
X37000D01*
Y85500D01*
X31100Y59500D02*
Y65000D01*
Y59500D02*
X38100D01*
Y65000D01*
X31100D02*
X38100D01*
X180000Y17500D02*
Y25500D01*
X185000D01*
Y17500D02*
Y25500D01*
X180000Y17500D02*
X185000D01*
X162098Y78626D02*
X166902D01*
X162098Y70674D02*
Y78626D01*
Y70674D02*
X166902D01*
Y78626D01*
X164098Y17174D02*
X168902D01*
Y25126D01*
X164098D02*
X168902D01*
X164098Y17174D02*
Y25126D01*
X260176Y83398D02*
Y88202D01*
X252224D02*
X260176D01*
X252224Y83398D02*
Y88202D01*
Y83398D02*
X260176D01*
X268176D02*
Y88202D01*
X260224D02*
X268176D01*
X260224Y83398D02*
Y88202D01*
Y83398D02*
X268176D01*
X53598Y32024D02*
X58402D01*
Y39976D01*
X53598D02*
X58402D01*
X53598Y32024D02*
Y39976D01*
X49098Y26126D02*
X53902D01*
X49098Y18174D02*
Y26126D01*
Y18174D02*
X53902D01*
Y26126D01*
X55598D02*
X60402D01*
X55598Y18174D02*
Y26126D01*
Y18174D02*
X60402D01*
Y26126D01*
X48976Y34598D02*
Y39402D01*
X41024D02*
X48976D01*
X41024Y34598D02*
Y39402D01*
Y34598D02*
X48976D01*
X49674Y83598D02*
Y88402D01*
Y83598D02*
X57626D01*
Y88402D01*
X49674D02*
X57626D01*
X93576Y76998D02*
Y81802D01*
X85624D02*
X93576D01*
X85624Y76998D02*
Y81802D01*
Y76998D02*
X93576D01*
X59476Y65098D02*
Y69902D01*
X51524D02*
X59476D01*
X51524Y65098D02*
Y69902D01*
Y65098D02*
X59476D01*
X61598Y54374D02*
X66402D01*
Y62326D01*
X61598D02*
X66402D01*
X61598Y54374D02*
Y62326D01*
X77976Y52098D02*
Y56902D01*
X70024D02*
X77976D01*
X70024Y52098D02*
Y56902D01*
Y52098D02*
X77976D01*
X78476Y58098D02*
Y62902D01*
X70524D02*
X78476D01*
X70524Y58098D02*
Y62902D01*
Y58098D02*
X78476D01*
X257291Y12098D02*
Y16902D01*
Y12098D02*
X265244D01*
Y16902D01*
X257291D02*
X265244D01*
X242024Y83098D02*
Y87902D01*
Y83098D02*
X249976D01*
Y87902D01*
X242024D02*
X249976D01*
X49876Y59298D02*
Y64102D01*
X41924D02*
X49876D01*
X41924Y59298D02*
Y64102D01*
Y59298D02*
X49876D01*
X73000Y10500D02*
Y12500D01*
X122500Y10500D02*
Y12500D01*
X173000Y10500D02*
Y12500D01*
X222500Y10500D02*
Y12500D01*
X72500Y87500D02*
Y89500D01*
X173000Y87500D02*
Y89500D01*
X122500Y87500D02*
Y89500D01*
X222500Y87500D02*
Y89500D01*
X35900Y11450D02*
Y12434D01*
Y11942D01*
X32948D01*
X33440Y11450D01*
X33100Y32400D02*
Y31416D01*
Y31908D01*
X36052D01*
X35560Y32400D01*
X28500Y35600D02*
X29484D01*
X28992D01*
Y38552D01*
X28500Y38060D01*
X35900Y67350D02*
Y68334D01*
Y67842D01*
X32948D01*
X33440Y67350D01*
X32600Y88400D02*
Y87416D01*
Y87908D01*
X35552D01*
X35060Y88400D01*
X28200Y60600D02*
X29184D01*
X28692D01*
Y63552D01*
X28200Y63060D01*
X177700Y16000D02*
X173701D01*
Y17999D01*
X174368Y18666D01*
X175701D01*
X176367Y17999D01*
Y16000D01*
X173701Y21998D02*
Y20665D01*
X174368Y19999D01*
X177033D01*
X177700Y20665D01*
Y21998D01*
X177033Y22664D01*
X174368D01*
X173701Y21998D01*
Y23997D02*
X177700D01*
X176367Y25330D01*
X177700Y26663D01*
X173701D01*
Y30662D02*
Y27996D01*
X177700D01*
Y30662D01*
X175701Y27996D02*
Y29329D01*
X177700Y31995D02*
X173701D01*
Y33994D01*
X174368Y34661D01*
X175701D01*
X176367Y33994D01*
Y31995D01*
Y33328D02*
X177700Y34661D01*
X173701Y66700D02*
X177033D01*
X177700Y67366D01*
Y68699D01*
X177033Y69366D01*
X173701D01*
X174368Y73365D02*
X173701Y72698D01*
Y71365D01*
X174368Y70699D01*
X175034D01*
X175701Y71365D01*
Y72698D01*
X176367Y73365D01*
X177033D01*
X177700Y72698D01*
Y71365D01*
X177033Y70699D01*
X173701Y77363D02*
Y74697D01*
X177700D01*
Y77363D01*
X175701Y74697D02*
Y76030D01*
X177700Y78696D02*
X173701D01*
Y80695D01*
X174368Y81362D01*
X175701D01*
X176367Y80695D01*
Y78696D01*
Y80029D02*
X177700Y81362D01*
X130100Y39000D02*
Y42999D01*
X132099D01*
X132766Y42332D01*
Y40999D01*
X132099Y40333D01*
X130100D01*
X131433D02*
X132766Y39000D01*
X136765Y42999D02*
X134099D01*
Y39000D01*
X136765D01*
X134099Y40999D02*
X135432D01*
X140763Y42332D02*
X140097Y42999D01*
X138764D01*
X138097Y42332D01*
Y41666D01*
X138764Y40999D01*
X140097D01*
X140763Y40333D01*
Y39666D01*
X140097Y39000D01*
X138764D01*
X138097Y39666D01*
X144762Y42999D02*
X142096D01*
Y39000D01*
X144762D01*
X142096Y40999D02*
X143429D01*
X146095Y42999D02*
X148761D01*
X147428D01*
Y39000D01*
X126700Y60899D02*
Y56900D01*
X128699D01*
X129366Y57566D01*
Y58233D01*
X128699Y58899D01*
X126700D01*
X128699D01*
X129366Y59566D01*
Y60232D01*
X128699Y60899D01*
X126700D01*
X132698D02*
X131365D01*
X130699Y60232D01*
Y57566D01*
X131365Y56900D01*
X132698D01*
X133364Y57566D01*
Y60232D01*
X132698Y60899D01*
X136697D02*
X135364D01*
X134697Y60232D01*
Y57566D01*
X135364Y56900D01*
X136697D01*
X137363Y57566D01*
Y60232D01*
X136697Y60899D01*
X138696D02*
X141362D01*
X140029D01*
Y56900D01*
X142695D02*
X145361Y59566D01*
X146694Y60899D02*
Y57566D01*
X147360Y56900D01*
X148693D01*
X149359Y57566D01*
Y60899D01*
X153358Y60232D02*
X152692Y60899D01*
X151359D01*
X150692Y60232D01*
Y59566D01*
X151359Y58899D01*
X152692D01*
X153358Y58233D01*
Y57566D01*
X152692Y56900D01*
X151359D01*
X150692Y57566D01*
X154691Y56900D02*
Y60899D01*
X156690D01*
X157357Y60232D01*
Y58899D01*
X156690Y58233D01*
X154691D01*
X156024D02*
X157357Y56900D01*
X147600Y52932D02*
X148266Y53599D01*
X149599D01*
X150266Y52932D01*
Y52266D01*
X149599Y51599D01*
X148933D01*
X149599D01*
X150266Y50933D01*
Y50266D01*
X149599Y49600D01*
X148266D01*
X147600Y50266D01*
X151599Y53599D02*
Y50933D01*
X152932Y49600D01*
X154264Y50933D01*
Y53599D01*
X155597Y52932D02*
X156264Y53599D01*
X157597D01*
X158263Y52932D01*
Y52266D01*
X157597Y51599D01*
X156930D01*
X157597D01*
X158263Y50933D01*
Y50266D01*
X157597Y49600D01*
X156264D01*
X155597Y50266D01*
X120700Y48400D02*
Y52399D01*
X122699D01*
X123366Y51732D01*
Y50399D01*
X122699Y49733D01*
X120700D01*
X122033D02*
X123366Y48400D01*
X127365Y52399D02*
X124699D01*
Y48400D01*
X127365D01*
X124699Y50399D02*
X126032D01*
X131363Y51732D02*
X130697Y52399D01*
X129364D01*
X128697Y51732D01*
Y49066D01*
X129364Y48400D01*
X130697D01*
X131363Y49066D01*
Y50399D01*
X130030D01*
X44600Y49599D02*
X47266D01*
X45933Y50932D02*
Y48266D01*
X51265Y51599D02*
X48599D01*
Y49599D01*
X49932Y50266D01*
X50598D01*
X51265Y49599D01*
Y48266D01*
X50598Y47600D01*
X49265D01*
X48599Y48266D01*
X52597Y51599D02*
Y48933D01*
X53930Y47600D01*
X55263Y48933D01*
Y51599D01*
X15600Y46599D02*
Y43266D01*
X16266Y42600D01*
X17599D01*
X18266Y43266D01*
Y46599D01*
X22264Y45932D02*
X21598Y46599D01*
X20265D01*
X19599Y45932D01*
Y45266D01*
X20265Y44599D01*
X21598D01*
X22264Y43933D01*
Y43266D01*
X21598Y42600D01*
X20265D01*
X19599Y43266D01*
X23597Y46599D02*
Y42600D01*
X25597D01*
X26263Y43266D01*
Y43933D01*
X25597Y44599D01*
X23597D01*
X25597D01*
X26263Y45266D01*
Y45932D01*
X25597Y46599D01*
X23597D01*
X30262Y42600D02*
X27596D01*
X30262Y45266D01*
Y45932D01*
X29596Y46599D01*
X28263D01*
X27596Y45932D01*
X17600Y56599D02*
Y53266D01*
X18267Y52600D01*
X19599D01*
X20266Y53266D01*
Y56599D01*
X24264Y55932D02*
X23598Y56599D01*
X22265D01*
X21599Y55932D01*
Y55266D01*
X22265Y54599D01*
X23598D01*
X24264Y53933D01*
Y53266D01*
X23598Y52600D01*
X22265D01*
X21599Y53266D01*
X25597Y56599D02*
Y52600D01*
X27597D01*
X28263Y53266D01*
Y53933D01*
X27597Y54599D01*
X25597D01*
X27597D01*
X28263Y55266D01*
Y55932D01*
X27597Y56599D01*
X25597D01*
X29596Y52600D02*
X30929D01*
X30263D01*
Y56599D01*
X29596Y55932D01*
X1600Y57599D02*
Y54266D01*
X2266Y53600D01*
X3599D01*
X4266Y54266D01*
Y57599D01*
X5599Y53600D02*
Y56266D01*
X6932Y57599D01*
X8264Y56266D01*
Y53600D01*
Y55599D01*
X5599D01*
X9597Y53600D02*
Y57599D01*
X11597D01*
X12263Y56932D01*
Y55599D01*
X11597Y54933D01*
X9597D01*
X10930D02*
X12263Y53600D01*
X13596Y57599D02*
X16262D01*
X14929D01*
Y53600D01*
X4266Y47599D02*
X1600D01*
Y43600D01*
X4266D01*
X1600Y45599D02*
X2933D01*
X8264Y46932D02*
X7598Y47599D01*
X6265D01*
X5599Y46932D01*
Y46266D01*
X6265Y45599D01*
X7598D01*
X8264Y44933D01*
Y44266D01*
X7598Y43600D01*
X6265D01*
X5599Y44266D01*
X9597Y43600D02*
Y47599D01*
X11597D01*
X12263Y46932D01*
Y45599D01*
X11597Y44933D01*
X9597D01*
X233266Y16599D02*
X231933D01*
X232599D01*
Y13266D01*
X231933Y12600D01*
X231266D01*
X230600Y13266D01*
X234599Y12600D02*
X235932D01*
X235265D01*
Y16599D01*
X234599Y15932D01*
X231766Y88599D02*
X230433D01*
X231099D01*
Y85266D01*
X230433Y84600D01*
X229766D01*
X229100Y85266D01*
X233099Y84600D02*
X234432D01*
X233765D01*
Y88599D01*
X233099Y87932D01*
D12*
X269917Y80315D02*
X289799D01*
X209090Y19685D02*
Y80315D01*
X269917Y19685D02*
X289799D01*
Y80315D01*
D13*
X77865Y90600D02*
X74533Y87268D01*
Y90600D02*
X77865Y87268D01*
X76199Y90600D02*
Y87268D01*
X74533Y88934D02*
X77865D01*
D14*
X182500Y84984D02*
D03*
Y17150D02*
D03*
M02*
